<svg width="360" height="258" viewBox="0 0 360 258" fill="none" xmlns="http://www.w3.org/2000/svg">
<path d="M60 194H349" stroke="#E4E4E4" stroke-dasharray="4 4"/>
<path d="M60 144H349" stroke="#E4E4E4" stroke-dasharray="4 4"/>
<path d="M61 94H350" stroke="#E4E4E4" stroke-dasharray="4 4"/>
<path d="M16.864 54H15.544L11.932 50.1C12.016 50.976 12.016 52.2 12.016 54H10.948V45.48H13.948C15.724 45.48 16.78 46.464 16.78 47.952C16.78 49.62 15.46 50.424 14.044 50.424H13.384C13.804 50.82 14.608 51.672 16.864 54ZM15.712 48.036C15.712 47.112 15.064 46.452 13.828 46.452H12.016V49.644H13.828C15.064 49.644 15.712 48.972 15.712 48.036ZM20.5961 47.688C22.4801 47.688 23.7881 49.044 23.7521 51.228H18.4961C18.5681 52.44 19.5041 53.244 20.7041 53.244C21.7361 53.244 22.3721 52.68 22.6481 52.092L23.5721 52.2C23.2481 53.244 22.1561 54.12 20.6921 54.12C18.8441 54.12 17.4521 52.848 17.4521 50.904C17.4521 49.092 18.7721 47.688 20.5961 47.688ZM20.5961 48.552C19.4561 48.552 18.5801 49.344 18.4961 50.424H22.6601C22.6241 49.368 21.8081 48.552 20.5961 48.552ZM29.0133 47.82H30.1293L27.6453 54H26.5653L24.0093 47.82H25.1493C26.6493 51.6 26.9133 52.344 27.1173 53.124C27.3092 52.284 27.5613 51.552 29.0133 47.82ZM33.5336 47.688C35.4176 47.688 36.7256 49.044 36.6896 51.228H31.4336C31.5056 52.44 32.4416 53.244 33.6416 53.244C34.6736 53.244 35.3096 52.68 35.5856 52.092L36.5096 52.2C36.1856 53.244 35.0936 54.12 33.6296 54.12C31.7816 54.12 30.3896 52.848 30.3896 50.904C30.3896 49.092 31.7096 47.688 33.5336 47.688ZM33.5336 48.552C32.3936 48.552 31.5176 49.344 31.4336 50.424H35.5976C35.5616 49.368 34.7456 48.552 33.5336 48.552ZM41.1366 47.688C42.4566 47.688 43.6206 48.468 43.6206 50.364V54H42.5646V50.508C42.5646 49.068 41.7246 48.6 40.8366 48.6C39.6726 48.6 38.9646 49.368 38.9646 50.652V54H37.9086V47.82H38.8086L38.9406 49.02C39.3246 48.18 40.0806 47.688 41.1366 47.688ZM49.6051 51.168V47.82H50.6611V54H49.7611L49.6531 52.752C49.2691 53.616 48.5131 54.12 47.4331 54.12C46.1251 54.12 44.9611 53.352 44.9611 51.456V47.82H46.0051V51.312C46.0051 52.752 46.8451 53.22 47.7451 53.22C48.8971 53.22 49.6051 52.452 49.6051 51.168ZM55.0258 47.688C56.9098 47.688 58.2178 49.044 58.1818 51.228H52.9258C52.9978 52.44 53.9338 53.244 55.1338 53.244C56.1658 53.244 56.8018 52.68 57.0778 52.092L58.0018 52.2C57.6778 53.244 56.5858 54.12 55.1218 54.12C53.2738 54.12 51.8818 52.848 51.8818 50.904C51.8818 49.092 53.2018 47.688 55.0258 47.688ZM55.0258 48.552C53.8858 48.552 53.0098 49.344 52.9258 50.424H57.0898C57.0538 49.368 56.2378 48.552 55.0258 48.552ZM60.0968 49.44C59.7488 49.44 59.4608 49.164 59.4608 48.792C59.4608 48.444 59.7488 48.156 60.0968 48.156C60.4568 48.156 60.7448 48.444 60.7448 48.792C60.7448 49.164 60.4568 49.44 60.0968 49.44ZM60.0968 54.12C59.7488 54.12 59.4608 53.844 59.4608 53.472C59.4608 53.124 59.7488 52.836 60.0968 52.836C60.4568 52.836 60.7448 53.124 60.7448 53.472C60.7448 53.844 60.4568 54.12 60.0968 54.12Z" fill="#012FB8"/>
<path d="M14.216 31.48V32.404C13.604 32.404 12.776 32.728 12.776 33.832V39.448C12.776 40.564 13.604 40.888 14.216 40.888V41.8C12.74 41.8 11.756 41.092 11.756 39.364V33.916C11.756 32.2 12.74 31.48 14.216 31.48ZM22.1133 40H20.9613C20.6613 39.16 20.4093 38.428 20.1813 37.768H16.6293L15.8613 40H14.7573L17.8173 31.48H19.0293L22.1133 40ZM16.9413 36.88H19.8693C18.6693 33.436 18.4773 32.764 18.3933 32.164C18.2973 32.764 18.1173 33.436 16.9413 36.88ZM28.4861 31.48V32.452H24.4301V35.188H27.6941V36.136H24.4301V39.028H28.4861V40H23.3621V31.48H28.4861ZM32.6131 40H29.9011V31.48H32.6131C35.2051 31.48 36.7771 33.352 36.7771 35.74C36.7771 38.128 35.2051 40 32.6131 40ZM30.9691 32.452V39.028H32.6131C34.4851 39.028 35.7091 37.744 35.7091 35.74C35.7091 33.736 34.4851 32.452 32.6131 32.452H30.9691ZM37.5132 41.8V40.876C38.1252 40.876 38.9532 40.552 38.9532 39.448V33.832C38.9532 32.716 38.1252 32.392 37.5132 32.392V31.48C38.9892 31.48 39.9612 32.188 39.9612 33.916V39.364C39.9612 41.08 38.9892 41.8 37.5132 41.8Z" fill="#012FB8"/>
<path d="M12.512 95.004H17.144V96H11.408V95.28C11.408 92.544 16.028 92.244 16.028 89.976C16.028 89.028 15.32 88.332 14.3 88.332C13.232 88.332 12.512 89.1 12.488 90.12H11.408C11.408 88.584 12.584 87.36 14.312 87.36C15.872 87.36 17.096 88.356 17.096 89.988C17.096 92.892 12.872 93.156 12.512 95.004ZM24.061 96.12C22.405 96.12 20.929 94.968 20.929 93.096V90.384C20.929 88.512 22.405 87.36 24.061 87.36C25.705 87.36 27.193 88.512 27.193 90.384V93.096C27.193 94.968 25.705 96.12 24.061 96.12ZM24.061 95.124C25.189 95.124 26.125 94.284 26.125 93.096V90.384C26.125 89.196 25.189 88.356 24.061 88.356C22.921 88.356 21.997 89.196 21.997 90.384V93.096C21.997 94.284 22.921 95.124 24.061 95.124ZM31.5844 96.12C29.9284 96.12 28.4524 94.968 28.4524 93.096V90.384C28.4524 88.512 29.9284 87.36 31.5844 87.36C33.2284 87.36 34.7164 88.512 34.7164 90.384V93.096C34.7164 94.968 33.2284 96.12 31.5844 96.12ZM31.5844 95.124C32.7124 95.124 33.6484 94.284 33.6484 93.096V90.384C33.6484 89.196 32.7124 88.356 31.5844 88.356C30.4444 88.356 29.5204 89.196 29.5204 90.384V93.096C29.5204 94.284 30.4444 95.124 31.5844 95.124ZM39.1078 96.12C37.4518 96.12 35.9758 94.968 35.9758 93.096V90.384C35.9758 88.512 37.4518 87.36 39.1078 87.36C40.7518 87.36 42.2398 88.512 42.2398 90.384V93.096C42.2398 94.968 40.7518 96.12 39.1078 96.12ZM39.1078 95.124C40.2358 95.124 41.1718 94.284 41.1718 93.096V90.384C41.1718 89.196 40.2358 88.356 39.1078 88.356C37.9678 88.356 37.0438 89.196 37.0438 90.384V93.096C37.0438 94.284 37.9678 95.124 39.1078 95.124ZM45.6593 92.676L49.0073 96H47.7473L44.6033 92.88C44.6633 93.732 44.6753 94.692 44.6753 96H43.6313V87H44.6753C44.6753 89.688 44.6753 91.164 44.6033 92.484L47.7353 89.82H48.9953L45.6593 92.676Z" fill="#373E40"/>
<path d="M14.348 145.052H16.316V146H11.3V145.052H13.268V138.776L11.444 139.316V138.332L14.348 137.48V145.052ZM22.8997 140.252C24.4837 140.252 25.7077 141.368 25.7077 143.132C25.7077 144.776 24.4477 146.12 22.6717 146.12C20.7997 146.12 19.6597 144.8 19.6597 143.324H20.7277C20.7517 144.332 21.5077 145.148 22.6717 145.148C23.7277 145.148 24.6397 144.344 24.6397 143.168C24.6397 141.884 23.7517 141.176 22.6957 141.176C21.9637 141.176 21.0877 141.524 20.8117 142.352H19.7557L20.4997 137.48H25.1077V138.428H21.3517L20.9557 140.984C21.4597 140.516 22.1437 140.252 22.8997 140.252ZM29.8969 146.12C28.2409 146.12 26.7649 144.968 26.7649 143.096V140.384C26.7649 138.512 28.2409 137.36 29.8969 137.36C31.5409 137.36 33.0289 138.512 33.0289 140.384V143.096C33.0289 144.968 31.5409 146.12 29.8969 146.12ZM29.8969 145.124C31.0249 145.124 31.9609 144.284 31.9609 143.096V140.384C31.9609 139.196 31.0249 138.356 29.8969 138.356C28.7569 138.356 27.8329 139.196 27.8329 140.384V143.096C27.8329 144.284 28.7569 145.124 29.8969 145.124ZM37.4203 146.12C35.7643 146.12 34.2883 144.968 34.2883 143.096V140.384C34.2883 138.512 35.7643 137.36 37.4203 137.36C39.0643 137.36 40.5523 138.512 40.5523 140.384V143.096C40.5523 144.968 39.0643 146.12 37.4203 146.12ZM37.4203 145.124C38.5483 145.124 39.4843 144.284 39.4843 143.096V140.384C39.4843 139.196 38.5483 138.356 37.4203 138.356C36.2803 138.356 35.3563 139.196 35.3563 140.384V143.096C35.3563 144.284 36.2803 145.124 37.4203 145.124ZM43.9718 142.676L47.3198 146H46.0598L42.9158 142.88C42.9758 143.732 42.9878 144.692 42.9878 146H41.9438V137H42.9878C42.9878 139.688 42.9878 141.164 42.9158 142.484L46.0478 139.82H47.3078L43.9718 142.676Z" fill="#373E40"/>
<path d="M11.144 189.428V188.48H16.796V189.296L13.64 197H12.512L15.656 189.428H11.144ZM20.72 191.252C22.304 191.252 23.528 192.368 23.528 194.132C23.528 195.776 22.268 197.12 20.492 197.12C18.62 197.12 17.48 195.8 17.48 194.324H18.548C18.572 195.332 19.328 196.148 20.492 196.148C21.548 196.148 22.46 195.344 22.46 194.168C22.46 192.884 21.572 192.176 20.516 192.176C19.784 192.176 18.908 192.524 18.632 193.352H17.576L18.32 188.48H22.928V189.428H19.172L18.776 191.984C19.28 191.516 19.964 191.252 20.72 191.252ZM27.7172 197.12C26.0612 197.12 24.5852 195.968 24.5852 194.096V191.384C24.5852 189.512 26.0612 188.36 27.7172 188.36C29.3612 188.36 30.8492 189.512 30.8492 191.384V194.096C30.8492 195.968 29.3612 197.12 27.7172 197.12ZM27.7172 196.124C28.8452 196.124 29.7812 195.284 29.7812 194.096V191.384C29.7812 190.196 28.8452 189.356 27.7172 189.356C26.5772 189.356 25.6532 190.196 25.6532 191.384V194.096C25.6532 195.284 26.5772 196.124 27.7172 196.124ZM34.2687 193.676L37.6167 197H36.3567L33.2127 193.88C33.2727 194.732 33.2847 195.692 33.2847 197H32.2407V188H33.2847C33.2847 190.688 33.2847 192.164 33.2127 193.484L36.3447 190.82H37.6047L34.2687 193.676Z" fill="#373E40"/>
<path d="M121.144 170.428V169.48H126.796V170.296L123.64 178H122.512L125.656 170.428H121.144ZM130.72 172.252C132.304 172.252 133.528 173.368 133.528 175.132C133.528 176.776 132.268 178.12 130.492 178.12C128.62 178.12 127.48 176.8 127.48 175.324H128.548C128.572 176.332 129.328 177.148 130.492 177.148C131.548 177.148 132.46 176.344 132.46 175.168C132.46 173.884 131.572 173.176 130.516 173.176C129.784 173.176 128.908 173.524 128.632 174.352H127.576L128.32 169.48H132.928V170.428H129.172L128.776 172.984C129.28 172.516 129.964 172.252 130.72 172.252ZM137.717 178.12C136.061 178.12 134.585 176.968 134.585 175.096V172.384C134.585 170.512 136.061 169.36 137.717 169.36C139.361 169.36 140.849 170.512 140.849 172.384V175.096C140.849 176.968 139.361 178.12 137.717 178.12ZM137.717 177.124C138.845 177.124 139.781 176.284 139.781 175.096V172.384C139.781 171.196 138.845 170.356 137.717 170.356C136.577 170.356 135.653 171.196 135.653 172.384V175.096C135.653 176.284 136.577 177.124 137.717 177.124ZM144.269 174.676L147.617 178H146.357L143.213 174.88C143.273 175.732 143.285 176.692 143.285 178H142.241V169H143.285C143.285 171.688 143.285 173.164 143.213 174.484L146.345 171.82H147.605L144.269 174.676Z" fill="#012FB8"/>
<path d="M207.348 127.052H209.316V128H204.3V127.052H206.268V120.776L204.444 121.316V120.332L207.348 119.48V127.052ZM215.9 122.252C217.484 122.252 218.708 123.368 218.708 125.132C218.708 126.776 217.448 128.12 215.672 128.12C213.8 128.12 212.66 126.8 212.66 125.324H213.728C213.752 126.332 214.508 127.148 215.672 127.148C216.728 127.148 217.64 126.344 217.64 125.168C217.64 123.884 216.752 123.176 215.696 123.176C214.964 123.176 214.088 123.524 213.812 124.352H212.756L213.5 119.48H218.108V120.428H214.352L213.956 122.984C214.46 122.516 215.144 122.252 215.9 122.252ZM222.897 128.12C221.241 128.12 219.765 126.968 219.765 125.096V122.384C219.765 120.512 221.241 119.36 222.897 119.36C224.541 119.36 226.029 120.512 226.029 122.384V125.096C226.029 126.968 224.541 128.12 222.897 128.12ZM222.897 127.124C224.025 127.124 224.961 126.284 224.961 125.096V122.384C224.961 121.196 224.025 120.356 222.897 120.356C221.757 120.356 220.833 121.196 220.833 122.384V125.096C220.833 126.284 221.757 127.124 222.897 127.124ZM230.42 128.12C228.764 128.12 227.288 126.968 227.288 125.096V122.384C227.288 120.512 228.764 119.36 230.42 119.36C232.064 119.36 233.552 120.512 233.552 122.384V125.096C233.552 126.968 232.064 128.12 230.42 128.12ZM230.42 127.124C231.548 127.124 232.484 126.284 232.484 125.096V122.384C232.484 121.196 231.548 120.356 230.42 120.356C229.28 120.356 228.356 121.196 228.356 122.384V125.096C228.356 126.284 229.28 127.124 230.42 127.124ZM236.972 124.676L240.32 128H239.06L235.916 124.88C235.976 125.732 235.988 126.692 235.988 128H234.944V119H235.988C235.988 121.688 235.988 123.164 235.916 124.484L239.048 121.82H240.308L236.972 124.676Z" fill="#012FB8"/>
<path d="M74.66 240H71.948V231.48H74.66C77.252 231.48 78.824 233.352 78.824 235.74C78.824 238.128 77.252 240 74.66 240ZM73.016 232.452V239.028H74.66C76.532 239.028 77.756 237.744 77.756 235.74C77.756 233.736 76.532 232.452 74.66 232.452H73.016ZM82.932 233.688C84.816 233.688 86.124 235.044 86.088 237.228H80.832C80.904 238.44 81.84 239.244 83.04 239.244C84.072 239.244 84.708 238.68 84.984 238.092L85.908 238.2C85.584 239.244 84.492 240.12 83.028 240.12C81.18 240.12 79.788 238.848 79.788 236.904C79.788 235.092 81.108 233.688 82.932 233.688ZM82.932 234.552C81.792 234.552 80.916 235.344 80.832 236.424H84.996C84.96 235.368 84.144 234.552 82.932 234.552ZM90.2711 240.12C88.3511 240.12 86.9951 238.74 86.9951 236.904C86.9951 235.068 88.3511 233.688 90.2711 233.688C91.0511 233.688 91.7351 233.94 92.2631 234.42V235.464C91.7711 234.972 91.1591 234.636 90.3671 234.636C89.0591 234.636 88.0511 235.62 88.0511 236.904C88.0511 238.188 89.0591 239.184 90.3671 239.184C91.1591 239.184 91.7711 238.836 92.2631 238.356V239.388C91.7351 239.88 91.0511 240.12 90.2711 240.12ZM94.3223 240.12C93.9623 240.12 93.6743 239.844 93.6743 239.472C93.6743 239.124 93.9623 238.836 94.3223 238.836C94.6703 238.836 94.9583 239.124 94.9583 239.472C94.9583 239.844 94.6703 240.12 94.3223 240.12ZM72.512 253.004H77.144V254H71.408V253.28C71.408 250.544 76.028 250.244 76.028 247.976C76.028 247.028 75.32 246.332 74.3 246.332C73.232 246.332 72.512 247.1 72.488 248.12H71.408C71.408 246.584 72.584 245.36 74.312 245.36C75.872 245.36 77.096 246.356 77.096 247.988C77.096 250.892 72.872 251.156 72.512 253.004ZM81.3422 254.12C79.6862 254.12 78.2102 252.968 78.2102 251.096V248.384C78.2102 246.512 79.6862 245.36 81.3422 245.36C82.9862 245.36 84.4742 246.512 84.4742 248.384V251.096C84.4742 252.968 82.9862 254.12 81.3422 254.12ZM81.3422 253.124C82.4702 253.124 83.4062 252.284 83.4062 251.096V248.384C83.4062 247.196 82.4702 246.356 81.3422 246.356C80.2022 246.356 79.2782 247.196 79.2782 248.384V251.096C79.2782 252.284 80.2022 253.124 81.3422 253.124ZM86.6097 253.004H91.2417V254H85.5057V253.28C85.5057 250.544 90.1257 250.244 90.1257 247.976C90.1257 247.028 89.4177 246.332 88.3977 246.332C87.3297 246.332 86.6097 247.1 86.5857 248.12H85.5057C85.5057 246.584 86.6817 245.36 88.4097 245.36C89.9697 245.36 91.1937 246.356 91.1937 247.988C91.1937 250.892 86.9697 251.156 86.6097 253.004ZM96.8863 251.324H98.2303V252.188H96.8863V254H95.8423V252.188H91.7263V251.444L95.8903 245.48H96.8863V251.324ZM95.9383 246.824L92.8543 251.324H95.8423V248.036C95.8423 247.52 95.8783 247.1 95.9383 246.824Z" fill="#373E40"/>
<path d="M138.16 236.328L141.364 231.48H142.372V240H141.304C141.304 235.416 141.304 233.844 141.388 233.148L138.16 238.068L134.932 233.148C135.016 233.856 135.016 235.476 135.016 240H133.948V231.48H134.956L138.16 236.328ZM149.396 235.224L149.552 233.82H150.452V240H149.396V238.548C149.012 239.496 148.1 240.12 146.876 240.12C144.992 240.12 143.78 238.704 143.78 236.892C143.78 235.056 145.028 233.688 146.924 233.688C148.004 233.688 148.916 234.252 149.396 235.164V235.224ZM147.128 239.184C148.448 239.184 149.384 238.188 149.384 236.904C149.384 235.632 148.448 234.636 147.128 234.636C145.796 234.636 144.836 235.584 144.836 236.904C144.836 238.236 145.796 239.184 147.128 239.184ZM152.867 233.82L152.987 234.84C153.335 234.108 153.983 233.652 155.111 233.796L155.099 234.72C153.791 234.54 153.035 235.092 153.035 236.184V240H151.991V233.82H152.867ZM156.311 240.12C155.951 240.12 155.663 239.844 155.663 239.472C155.663 239.124 155.951 238.836 156.311 238.836C156.659 238.836 156.947 239.124 156.947 239.472C156.947 239.844 156.659 240.12 156.311 240.12ZM134.512 253.004H139.144V254H133.408V253.28C133.408 250.544 138.028 250.244 138.028 247.976C138.028 247.028 137.32 246.332 136.3 246.332C135.232 246.332 134.512 247.1 134.488 248.12H133.408C133.408 246.584 134.584 245.36 136.312 245.36C137.872 245.36 139.096 246.356 139.096 247.988C139.096 250.892 134.872 251.156 134.512 253.004ZM143.342 254.12C141.686 254.12 140.21 252.968 140.21 251.096V248.384C140.21 246.512 141.686 245.36 143.342 245.36C144.986 245.36 146.474 246.512 146.474 248.384V251.096C146.474 252.968 144.986 254.12 143.342 254.12ZM143.342 253.124C144.47 253.124 145.406 252.284 145.406 251.096V248.384C145.406 247.196 144.47 246.356 143.342 246.356C142.202 246.356 141.278 247.196 141.278 248.384V251.096C141.278 252.284 142.202 253.124 143.342 253.124ZM148.61 253.004H153.242V254H147.506V253.28C147.506 250.544 152.126 250.244 152.126 247.976C152.126 247.028 151.418 246.332 150.398 246.332C149.33 246.332 148.61 247.1 148.586 248.12H147.506C147.506 246.584 148.682 245.36 150.41 245.36C151.97 245.36 153.194 246.356 153.194 247.988C153.194 250.892 148.97 251.156 148.61 253.004ZM157.392 248.252C158.976 248.252 160.2 249.368 160.2 251.132C160.2 252.776 158.94 254.12 157.164 254.12C155.292 254.12 154.152 252.8 154.152 251.324H155.22C155.244 252.332 156 253.148 157.164 253.148C158.22 253.148 159.132 252.344 159.132 251.168C159.132 249.884 158.244 249.176 157.188 249.176C156.456 249.176 155.58 249.524 155.304 250.352H154.248L154.992 245.48H159.6V246.428H155.844L155.448 248.984C155.952 248.516 156.636 248.252 157.392 248.252Z" fill="#373E40"/>
<path d="M60 68L57.1133 73L62.8868 73L60 68ZM60 220L60.5 220L60.5 72.5L60 72.5L59.5 72.5L59.5 220L60 220Z" fill="#E4E4E4"/>
<path d="M350 220L345 217.113V222.887L350 220ZM60 220V220.5L345.5 220.5V220V219.5L60 219.5V220Z" fill="#E4E4E4"/>
<rect x="56" y="93" width="4" height="2" rx="1" fill="#E4E4E4"/>
<rect x="56" y="143" width="4" height="2" rx="1" fill="#E4E4E4"/>
<rect x="56" y="193" width="4" height="2" rx="1" fill="#E4E4E4"/>
<path d="M73 220L73 224C73 224.552 72.5523 225 72 225C71.4477 225 71 224.552 71 224L71 220L73 220Z" fill="#E4E4E4"/>
<path d="M136 220L136 224C136 224.552 135.552 225 135 225C134.448 225 134 224.552 134 224L134 220L136 220Z" fill="#E4E4E4"/>
<path d="M307 220L307 224C307 224.552 306.552 225 306 225C305.448 225 305 224.552 305 224L305 220L307 220Z" fill="#E4E4E4"/>
<path d="M225 220L225 224C225 224.552 224.552 225 224 225C223.448 225 223 224.552 223 224L223 220L225 220Z" fill="#E4E4E4"/>
<path d="M60 220L71.5 210L91.6777 203.841L136 193.709L160 177.691L184.961 161.04L222.5 144.102L263.884 115.437L306.946 94H350" stroke="#373E40"/>
<circle cx="135" cy="194" r="2" fill="#373E40"/>
<circle cx="222" cy="144" r="2" fill="#373E40"/>
<path d="M225.384 240.12C223.656 240.12 222.444 239.04 222.372 237.492H223.464C223.536 238.668 224.436 239.208 225.396 239.208C226.452 239.208 227.124 238.656 227.124 237.852C227.124 235.86 222.696 236.34 222.696 233.556C222.696 232.224 223.812 231.36 225.288 231.36C226.872 231.36 227.916 232.344 227.988 233.796L226.92 233.82C226.836 232.872 226.236 232.272 225.3 232.272C224.472 232.272 223.8 232.728 223.8 233.52C223.8 235.62 228.24 234.972 228.24 237.792C228.24 239.232 227.052 240.12 225.384 240.12ZM232.268 233.688C234.152 233.688 235.46 235.044 235.424 237.228H230.168C230.24 238.44 231.176 239.244 232.376 239.244C233.408 239.244 234.044 238.68 234.32 238.092L235.244 238.2C234.92 239.244 233.828 240.12 232.364 240.12C230.516 240.12 229.124 238.848 229.124 236.904C229.124 235.092 230.444 233.688 232.268 233.688ZM232.268 234.552C231.128 234.552 230.252 235.344 230.168 236.424H234.332C234.296 235.368 233.48 234.552 232.268 234.552ZM240.207 233.7C242.091 233.7 243.303 235.116 243.303 236.928C243.303 238.764 242.055 240.12 240.159 240.12C239.079 240.12 238.167 239.568 237.687 238.644V242.76H236.643V233.82H237.531L237.687 235.236V235.26C238.071 234.324 238.983 233.7 240.207 233.7ZM239.955 239.184C241.287 239.184 242.247 238.236 242.247 236.916C242.247 235.584 241.287 234.636 239.955 234.636C238.635 234.636 237.699 235.632 237.699 236.916C237.699 238.188 238.635 239.184 239.955 239.184ZM245.9 233.82H247.208V234.648H245.9V240H244.844V234.648H243.932V233.82H244.844V232.044H245.9V233.82ZM248.885 240.12C248.525 240.12 248.237 239.844 248.237 239.472C248.237 239.124 248.525 238.836 248.885 238.836C249.233 238.836 249.521 239.124 249.521 239.472C249.521 239.844 249.233 240.12 248.885 240.12ZM223.512 253.004H228.144V254H222.408V253.28C222.408 250.544 227.028 250.244 227.028 247.976C227.028 247.028 226.32 246.332 225.3 246.332C224.232 246.332 223.512 247.1 223.488 248.12H222.408C222.408 246.584 223.584 245.36 225.312 245.36C226.872 245.36 228.096 246.356 228.096 247.988C228.096 250.892 223.872 251.156 223.512 253.004ZM232.342 254.12C230.686 254.12 229.21 252.968 229.21 251.096V248.384C229.21 246.512 230.686 245.36 232.342 245.36C233.986 245.36 235.474 246.512 235.474 248.384V251.096C235.474 252.968 233.986 254.12 232.342 254.12ZM232.342 253.124C233.47 253.124 234.406 252.284 234.406 251.096V248.384C234.406 247.196 233.47 246.356 232.342 246.356C231.202 246.356 230.278 247.196 230.278 248.384V251.096C230.278 252.284 231.202 253.124 232.342 253.124ZM237.61 253.004H242.242V254H236.506V253.28C236.506 250.544 241.126 250.244 241.126 247.976C241.126 247.028 240.418 246.332 239.398 246.332C238.33 246.332 237.61 247.1 237.586 248.12H236.506C236.506 246.584 237.682 245.36 239.41 245.36C240.97 245.36 242.194 246.356 242.194 247.988C242.194 250.892 237.97 251.156 237.61 253.004ZM246.392 248.252C247.976 248.252 249.2 249.368 249.2 251.132C249.2 252.776 247.94 254.12 246.164 254.12C244.292 254.12 243.152 252.8 243.152 251.324H244.22C244.244 252.332 245 253.148 246.164 253.148C247.22 253.148 248.132 252.344 248.132 251.168C248.132 249.884 247.244 249.176 246.188 249.176C245.456 249.176 244.58 249.524 244.304 250.352H243.248L243.992 245.48H248.6V246.428H244.844L244.448 248.984C244.952 248.516 245.636 248.252 246.392 248.252Z" fill="#373E40"/>
<path d="M307.384 240.12C305.656 240.12 304.444 239.04 304.372 237.492H305.464C305.536 238.668 306.436 239.208 307.396 239.208C308.452 239.208 309.124 238.656 309.124 237.852C309.124 235.86 304.696 236.34 304.696 233.556C304.696 232.224 305.812 231.36 307.288 231.36C308.872 231.36 309.916 232.344 309.988 233.796L308.92 233.82C308.836 232.872 308.236 232.272 307.3 232.272C306.472 232.272 305.8 232.728 305.8 233.52C305.8 235.62 310.24 234.972 310.24 237.792C310.24 239.232 309.052 240.12 307.384 240.12ZM314.268 233.688C316.152 233.688 317.46 235.044 317.424 237.228H312.168C312.24 238.44 313.176 239.244 314.376 239.244C315.408 239.244 316.044 238.68 316.32 238.092L317.244 238.2C316.92 239.244 315.828 240.12 314.364 240.12C312.516 240.12 311.124 238.848 311.124 236.904C311.124 235.092 312.444 233.688 314.268 233.688ZM314.268 234.552C313.128 234.552 312.252 235.344 312.168 236.424H316.332C316.296 235.368 315.48 234.552 314.268 234.552ZM322.207 233.7C324.091 233.7 325.303 235.116 325.303 236.928C325.303 238.764 324.055 240.12 322.159 240.12C321.079 240.12 320.167 239.568 319.687 238.644V242.76H318.643V233.82H319.531L319.687 235.236V235.26C320.071 234.324 320.983 233.7 322.207 233.7ZM321.955 239.184C323.287 239.184 324.247 238.236 324.247 236.916C324.247 235.584 323.287 234.636 321.955 234.636C320.635 234.636 319.699 235.632 319.699 236.916C319.699 238.188 320.635 239.184 321.955 239.184ZM327.9 233.82H329.208V234.648H327.9V240H326.844V234.648H325.932V233.82H326.844V232.044H327.9V233.82ZM330.885 240.12C330.525 240.12 330.237 239.844 330.237 239.472C330.237 239.124 330.525 238.836 330.885 238.836C331.233 238.836 331.521 239.124 331.521 239.472C331.521 239.844 331.233 240.12 330.885 240.12ZM305.512 253.004H310.144V254H304.408V253.28C304.408 250.544 309.028 250.244 309.028 247.976C309.028 247.028 308.32 246.332 307.3 246.332C306.232 246.332 305.512 247.1 305.488 248.12H304.408C304.408 246.584 305.584 245.36 307.312 245.36C308.872 245.36 310.096 246.356 310.096 247.988C310.096 250.892 305.872 251.156 305.512 253.004ZM314.342 254.12C312.686 254.12 311.21 252.968 311.21 251.096V248.384C311.21 246.512 312.686 245.36 314.342 245.36C315.986 245.36 317.474 246.512 317.474 248.384V251.096C317.474 252.968 315.986 254.12 314.342 254.12ZM314.342 253.124C315.47 253.124 316.406 252.284 316.406 251.096V248.384C316.406 247.196 315.47 246.356 314.342 246.356C313.202 246.356 312.278 247.196 312.278 248.384V251.096C312.278 252.284 313.202 253.124 314.342 253.124ZM319.61 253.004H324.242V254H318.506V253.28C318.506 250.544 323.126 250.244 323.126 247.976C323.126 247.028 322.418 246.332 321.398 246.332C320.33 246.332 319.61 247.1 319.586 248.12H318.506C318.506 246.584 319.682 245.36 321.41 245.36C322.97 245.36 324.194 246.356 324.194 247.988C324.194 250.892 319.97 251.156 319.61 253.004ZM328.44 248.336C329.988 248.336 331.176 249.512 331.176 251.156C331.176 252.836 329.952 254.12 328.164 254.12C326.364 254.12 325.128 252.836 325.128 251.204C325.128 250.688 325.284 250.016 325.752 249.248L328.092 245.468L329.268 245.48L327.384 248.552C327.684 248.408 328.02 248.336 328.44 248.336ZM328.164 253.124C329.28 253.124 330.108 252.296 330.108 251.156C330.108 250.016 329.28 249.188 328.164 249.188C327.012 249.188 326.196 250.004 326.196 251.156C326.196 252.296 327.036 253.124 328.164 253.124Z" fill="#373E40"/>
<circle cx="307" cy="95" r="2" fill="#373E40"/>
<path d="M306.512 83.004H311.144V84H305.408V83.28C305.408 80.544 310.028 80.244 310.028 77.976C310.028 77.028 309.32 76.332 308.3 76.332C307.232 76.332 306.512 77.1 306.488 78.12H305.408C305.408 76.584 306.584 75.36 308.312 75.36C309.872 75.36 311.096 76.356 311.096 77.988C311.096 80.892 306.872 81.156 306.512 83.004ZM318.061 84.12C316.405 84.12 314.929 82.968 314.929 81.096V78.384C314.929 76.512 316.405 75.36 318.061 75.36C319.705 75.36 321.193 76.512 321.193 78.384V81.096C321.193 82.968 319.705 84.12 318.061 84.12ZM318.061 83.124C319.189 83.124 320.125 82.284 320.125 81.096V78.384C320.125 77.196 319.189 76.356 318.061 76.356C316.921 76.356 315.997 77.196 315.997 78.384V81.096C315.997 82.284 316.921 83.124 318.061 83.124ZM325.584 84.12C323.928 84.12 322.452 82.968 322.452 81.096V78.384C322.452 76.512 323.928 75.36 325.584 75.36C327.228 75.36 328.716 76.512 328.716 78.384V81.096C328.716 82.968 327.228 84.12 325.584 84.12ZM325.584 83.124C326.712 83.124 327.648 82.284 327.648 81.096V78.384C327.648 77.196 326.712 76.356 325.584 76.356C324.444 76.356 323.52 77.196 323.52 78.384V81.096C323.52 82.284 324.444 83.124 325.584 83.124ZM333.108 84.12C331.452 84.12 329.976 82.968 329.976 81.096V78.384C329.976 76.512 331.452 75.36 333.108 75.36C334.752 75.36 336.24 76.512 336.24 78.384V81.096C336.24 82.968 334.752 84.12 333.108 84.12ZM333.108 83.124C334.236 83.124 335.172 82.284 335.172 81.096V78.384C335.172 77.196 334.236 76.356 333.108 76.356C331.968 76.356 331.044 77.196 331.044 78.384V81.096C331.044 82.284 331.968 83.124 333.108 83.124ZM339.659 80.676L343.007 84H341.747L338.603 80.88C338.663 81.732 338.675 82.692 338.675 84H337.631V75H338.675C338.675 77.688 338.675 79.164 338.603 80.484L341.735 77.82H342.995L339.659 80.676Z" fill="#012FB8"/>
</svg>
