<svg width="1720" height="148" viewBox="0 0 1720 148" fill="none" xmlns="http://www.w3.org/2000/svg">
<rect x="35" y="47" width="1685" height="55" fill="#E4E4E4"/>
<path d="M37.4961 48.2119H52.5C53.2113 48.2119 53.7881 48.7887 53.7881 49.5V59.5C53.7881 60.2112 53.2112 60.7881 52.5 60.7881H37.4961C36.7849 60.788 36.208 60.2112 36.208 59.5V55.7881H28.7881V73.2119H36.208V69.5C36.208 68.7888 36.7849 68.212 37.4961 68.2119H52.5C53.2112 68.2119 53.7881 68.7888 53.7881 69.5V79.5C53.7881 80.2112 53.2112 80.7881 52.5 80.7881H37.4961C36.7849 80.788 36.208 80.2112 36.208 79.5V75.7881H28.7881V93.2119H36.208V89.5C36.208 88.7888 36.7849 88.212 37.4961 88.2119H52.5C53.2112 88.2119 53.7881 88.7888 53.7881 89.5V99.5C53.7881 100.211 53.2112 100.788 52.5 100.788H37.4961C36.7849 100.788 36.208 100.211 36.208 99.5V95.7881H27.5C26.7888 95.7881 26.2119 95.2112 26.2119 94.5V75.7881H18.7881V80.333C18.7881 81.0442 18.2112 81.6211 17.5 81.6211H2.5C1.78878 81.6211 1.21191 81.0442 1.21191 80.333V68.666C1.21218 67.955 1.78894 67.3789 2.5 67.3789H17.5C18.211 67.3789 18.7878 67.955 18.7881 68.666V73.2119H26.2119V54.5C26.2119 53.7888 26.7888 53.2119 27.5 53.2119H36.208V49.5C36.208 48.7888 36.7849 48.212 37.4961 48.2119Z" fill="#373E40" stroke="#373E40" stroke-width="2.42424"/>
<path d="M747.06 12.546C750.492 12.546 753.144 14.964 753.144 18.786C753.144 22.348 750.414 25.26 746.566 25.26C742.51 25.26 740.04 22.4 740.04 19.202H742.354C742.406 21.386 744.044 23.154 746.566 23.154C748.854 23.154 750.83 21.412 750.83 18.864C750.83 16.082 748.906 14.548 746.618 14.548C745.032 14.548 743.134 15.302 742.536 17.096H740.248L741.86 6.54H751.844V8.594H743.706L742.848 14.132C743.94 13.118 745.422 12.546 747.06 12.546ZM768.033 25.26C763.873 25.26 760.935 22.27 760.935 18.292C760.935 14.314 763.873 11.324 768.033 11.324C769.723 11.324 771.205 11.87 772.349 12.91V15.172C771.283 14.106 769.957 13.378 768.241 13.378C765.407 13.378 763.223 15.51 763.223 18.292C763.223 21.074 765.407 23.232 768.241 23.232C769.957 23.232 771.283 22.478 772.349 21.438V23.674C771.205 24.74 769.723 25.26 768.033 25.26ZM775.17 5.5H777.432V25H775.17V5.5ZM781.9 9.608C781.094 9.608 780.47 8.958 780.47 8.178C780.47 7.372 781.094 6.722 781.9 6.722C782.706 6.722 783.356 7.372 783.356 8.178C783.356 8.958 782.706 9.608 781.9 9.608ZM780.756 11.61H783.018V25H780.756V11.61ZM793.336 11.324C796.196 11.324 798.718 13.014 798.718 17.122V25H796.43V17.434C796.43 14.314 794.61 13.3 792.686 13.3C790.164 13.3 788.63 14.964 788.63 17.746V25H786.342V11.61H788.292L788.578 14.21C789.41 12.39 791.048 11.324 793.336 11.324ZM802.974 9.608C802.168 9.608 801.544 8.958 801.544 8.178C801.544 7.372 802.168 6.722 802.974 6.722C803.78 6.722 804.43 7.372 804.43 8.178C804.43 8.958 803.78 9.608 802.974 9.608ZM801.83 11.61H804.092V25H801.83V11.61ZM813.838 25.26C809.678 25.26 806.74 22.27 806.74 18.292C806.74 14.314 809.678 11.324 813.838 11.324C815.528 11.324 817.01 11.87 818.154 12.91V15.172C817.088 14.106 815.762 13.378 814.046 13.378C811.212 13.378 809.028 15.51 809.028 18.292C809.028 21.074 811.212 23.232 814.046 23.232C815.762 23.232 817.088 22.478 818.154 21.438V23.674C817.01 24.74 815.528 25.26 813.838 25.26ZM825.837 25.26C822.795 25.26 820.299 23.934 820.065 20.996L822.301 20.918C822.509 22.582 823.991 23.44 825.915 23.44C827.683 23.44 828.827 22.738 828.827 21.49C828.827 18.344 820.715 19.904 820.715 15.12C820.715 12.806 822.847 11.35 825.577 11.35C828.411 11.35 830.465 12.988 830.621 15.276L828.437 15.354C828.255 14.002 827.163 13.118 825.551 13.118C824.043 13.118 822.925 13.846 822.925 14.99C822.925 18.032 831.115 16.394 831.115 21.386C831.115 23.882 828.983 25.26 825.837 25.26Z" fill="#373E40"/>
<path d="M742.276 137.842H752.312V140H739.884V138.44C739.884 132.512 749.894 131.862 749.894 126.948C749.894 124.894 748.36 123.386 746.15 123.386C743.836 123.386 742.276 125.05 742.224 127.26H739.884C739.884 123.932 742.432 121.28 746.176 121.28C749.556 121.28 752.208 123.438 752.208 126.974C752.208 133.266 743.056 133.838 742.276 137.842ZM761.408 140.26C757.82 140.26 754.622 137.764 754.622 133.708V127.832C754.622 123.776 757.82 121.28 761.408 121.28C764.97 121.28 768.194 123.776 768.194 127.832V133.708C768.194 137.764 764.97 140.26 761.408 140.26ZM761.408 138.102C763.852 138.102 765.88 136.282 765.88 133.708V127.832C765.88 125.258 763.852 123.438 761.408 123.438C758.938 123.438 756.936 125.258 756.936 127.832V133.708C756.936 136.282 758.938 138.102 761.408 138.102ZM772.821 137.842H782.857V140H770.429V138.44C770.429 132.512 780.439 131.862 780.439 126.948C780.439 124.894 778.905 123.386 776.695 123.386C774.381 123.386 772.821 125.05 772.769 127.26H770.429C770.429 123.932 772.977 121.28 776.721 121.28C780.101 121.28 782.753 123.438 782.753 126.974C782.753 133.266 773.601 133.838 772.821 137.842ZM791.953 127.728C795.307 127.728 797.881 130.276 797.881 133.838C797.881 137.478 795.229 140.26 791.355 140.26C787.455 140.26 784.777 137.478 784.777 133.942C784.777 132.824 785.115 131.368 786.129 129.704L791.199 121.514L793.747 121.54L789.665 128.196C790.315 127.884 791.043 127.728 791.953 127.728ZM791.355 138.102C793.773 138.102 795.567 136.308 795.567 133.838C795.567 131.368 793.773 129.574 791.355 129.574C788.859 129.574 787.091 131.342 787.091 133.838C787.091 136.308 788.911 138.102 791.355 138.102Z" fill="#373E40"/>
<path d="M320.254 20.946H324.518V23H313.65V20.946H317.914V7.348L313.962 8.518V6.386L320.254 4.54V20.946ZM338.809 23.26C334.649 23.26 331.711 20.27 331.711 16.292C331.711 12.314 334.649 9.324 338.809 9.324C340.499 9.324 341.981 9.87 343.125 10.91V13.172C342.059 12.106 340.733 11.378 339.017 11.378C336.183 11.378 333.999 13.51 333.999 16.292C333.999 19.074 336.183 21.232 339.017 21.232C340.733 21.232 342.059 20.478 343.125 19.438V21.674C341.981 22.74 340.499 23.26 338.809 23.26ZM345.945 3.5H348.207V23H345.945V3.5ZM352.675 7.608C351.869 7.608 351.245 6.958 351.245 6.178C351.245 5.372 351.869 4.722 352.675 4.722C353.481 4.722 354.131 5.372 354.131 6.178C354.131 6.958 353.481 7.608 352.675 7.608ZM351.531 9.61H353.793V23H351.531V9.61ZM364.111 9.324C366.971 9.324 369.493 11.014 369.493 15.122V23H367.205V15.434C367.205 12.314 365.385 11.3 363.461 11.3C360.939 11.3 359.405 12.964 359.405 15.746V23H357.117V9.61H359.067L359.353 12.21C360.185 10.39 361.823 9.324 364.111 9.324ZM373.749 7.608C372.943 7.608 372.319 6.958 372.319 6.178C372.319 5.372 372.943 4.722 373.749 4.722C374.555 4.722 375.205 5.372 375.205 6.178C375.205 6.958 374.555 7.608 373.749 7.608ZM372.605 9.61H374.867V23H372.605V9.61ZM384.613 23.26C380.453 23.26 377.515 20.27 377.515 16.292C377.515 12.314 380.453 9.324 384.613 9.324C386.303 9.324 387.785 9.87 388.929 10.91V13.172C387.863 12.106 386.537 11.378 384.821 11.378C381.987 11.378 379.803 13.51 379.803 16.292C379.803 19.074 381.987 21.232 384.821 21.232C386.537 21.232 387.863 20.478 388.929 19.438V21.674C387.785 22.74 386.303 23.26 384.613 23.26Z" fill="#012FB8"/>
<path d="M316.276 137.842H326.312V140H313.884V138.44C313.884 132.512 323.894 131.862 323.894 126.948C323.894 124.894 322.36 123.386 320.15 123.386C317.836 123.386 316.276 125.05 316.224 127.26H313.884C313.884 123.932 316.432 121.28 320.176 121.28C323.556 121.28 326.208 123.438 326.208 126.974C326.208 133.266 317.056 133.838 316.276 137.842ZM335.408 140.26C331.82 140.26 328.622 137.764 328.622 133.708V127.832C328.622 123.776 331.82 121.28 335.408 121.28C338.97 121.28 342.194 123.776 342.194 127.832V133.708C342.194 137.764 338.97 140.26 335.408 140.26ZM335.408 138.102C337.852 138.102 339.88 136.282 339.88 133.708V127.832C339.88 125.258 337.852 123.438 335.408 123.438C332.938 123.438 330.936 125.258 330.936 127.832V133.708C330.936 136.282 332.938 138.102 335.408 138.102ZM346.821 137.842H356.857V140H344.429V138.44C344.429 132.512 354.439 131.862 354.439 126.948C354.439 124.894 352.905 123.386 350.695 123.386C348.381 123.386 346.821 125.05 346.769 127.26H344.429C344.429 123.932 346.977 121.28 350.721 121.28C354.101 121.28 356.753 123.438 356.753 126.974C356.753 133.266 347.601 133.838 346.821 137.842ZM369.087 134.202H371.999V136.074H369.087V140H366.825V136.074H357.907V134.462L366.929 121.54H369.087V134.202ZM367.033 124.452L360.351 134.202H366.825V127.078C366.825 125.96 366.903 125.05 367.033 124.452Z" fill="#012FB8"/>
<path d="M1160.31 8.594V6.54H1172.56V8.308L1165.72 25H1163.28L1170.09 8.594H1160.31ZM1186.98 25.26C1182.82 25.26 1179.88 22.27 1179.88 18.292C1179.88 14.314 1182.82 11.324 1186.98 11.324C1188.67 11.324 1190.15 11.87 1191.29 12.91V15.172C1190.23 14.106 1188.9 13.378 1187.18 13.378C1184.35 13.378 1182.17 15.51 1182.17 18.292C1182.17 21.074 1184.35 23.232 1187.18 23.232C1188.9 23.232 1190.23 22.478 1191.29 21.438V23.674C1190.15 24.74 1188.67 25.26 1186.98 25.26ZM1194.11 5.5H1196.38V25H1194.11V5.5ZM1200.84 9.608C1200.04 9.608 1199.41 8.958 1199.41 8.178C1199.41 7.372 1200.04 6.722 1200.84 6.722C1201.65 6.722 1202.3 7.372 1202.3 8.178C1202.3 8.958 1201.65 9.608 1200.84 9.608ZM1199.7 11.61H1201.96V25H1199.7V11.61ZM1212.28 11.324C1215.14 11.324 1217.66 13.014 1217.66 17.122V25H1215.37V17.434C1215.37 14.314 1213.55 13.3 1211.63 13.3C1209.11 13.3 1207.57 14.964 1207.57 17.746V25H1205.29V11.61H1207.24L1207.52 14.21C1208.35 12.39 1209.99 11.324 1212.28 11.324ZM1221.92 9.608C1221.11 9.608 1220.49 8.958 1220.49 8.178C1220.49 7.372 1221.11 6.722 1221.92 6.722C1222.72 6.722 1223.37 7.372 1223.37 8.178C1223.37 8.958 1222.72 9.608 1221.92 9.608ZM1220.77 11.61H1223.04V25H1220.77V11.61ZM1232.78 25.26C1228.62 25.26 1225.68 22.27 1225.68 18.292C1225.68 14.314 1228.62 11.324 1232.78 11.324C1234.47 11.324 1235.95 11.87 1237.1 12.91V15.172C1236.03 14.106 1234.71 13.378 1232.99 13.378C1230.16 13.378 1227.97 15.51 1227.97 18.292C1227.97 21.074 1230.16 23.232 1232.99 23.232C1234.71 23.232 1236.03 22.478 1237.1 21.438V23.674C1235.95 24.74 1234.47 25.26 1232.78 25.26ZM1244.78 25.26C1241.74 25.26 1239.24 23.934 1239.01 20.996L1241.24 20.918C1241.45 22.582 1242.93 23.44 1244.86 23.44C1246.63 23.44 1247.77 22.738 1247.77 21.49C1247.77 18.344 1239.66 19.904 1239.66 15.12C1239.66 12.806 1241.79 11.35 1244.52 11.35C1247.35 11.35 1249.41 12.988 1249.56 15.276L1247.38 15.354C1247.2 14.002 1246.11 13.118 1244.49 13.118C1242.99 13.118 1241.87 13.846 1241.87 14.99C1241.87 18.032 1250.06 16.394 1250.06 21.386C1250.06 23.882 1247.93 25.26 1244.78 25.26Z" fill="#828282"/>
<path d="M1163.28 137.842H1173.31V140H1160.88V138.44C1160.88 132.512 1170.89 131.862 1170.89 126.948C1170.89 124.894 1169.36 123.386 1167.15 123.386C1164.84 123.386 1163.28 125.05 1163.22 127.26H1160.88C1160.88 123.932 1163.43 121.28 1167.18 121.28C1170.56 121.28 1173.21 123.438 1173.21 126.974C1173.21 133.266 1164.06 133.838 1163.28 137.842ZM1182.41 140.26C1178.82 140.26 1175.62 137.764 1175.62 133.708V127.832C1175.62 123.776 1178.82 121.28 1182.41 121.28C1185.97 121.28 1189.19 123.776 1189.19 127.832V133.708C1189.19 137.764 1185.97 140.26 1182.41 140.26ZM1182.41 138.102C1184.85 138.102 1186.88 136.282 1186.88 133.708V127.832C1186.88 125.258 1184.85 123.438 1182.41 123.438C1179.94 123.438 1177.94 125.258 1177.94 127.832V133.708C1177.94 136.282 1179.94 138.102 1182.41 138.102ZM1193.82 137.842H1203.86V140H1191.43V138.44C1191.43 132.512 1201.44 131.862 1201.44 126.948C1201.44 124.894 1199.9 123.386 1197.69 123.386C1195.38 123.386 1193.82 125.05 1193.77 127.26H1191.43C1191.43 123.932 1193.98 121.28 1197.72 121.28C1201.1 121.28 1203.75 123.438 1203.75 126.974C1203.75 133.266 1194.6 133.838 1193.82 137.842ZM1205.1 123.594V121.54H1217.35V123.308L1210.51 140H1208.07L1214.88 123.594H1205.1Z" fill="#828282"/>
<path d="M1590.25 22.946H1594.52V25H1583.65V22.946H1587.91V9.348L1583.96 10.518V8.386L1590.25 6.54V22.946ZM1602.72 25.26C1599.13 25.26 1595.93 22.764 1595.93 18.708V12.832C1595.93 8.776 1599.13 6.28 1602.72 6.28C1606.28 6.28 1609.5 8.776 1609.5 12.832V18.708C1609.5 22.764 1606.28 25.26 1602.72 25.26ZM1602.72 23.102C1605.16 23.102 1607.19 21.282 1607.19 18.708V12.832C1607.19 10.258 1605.16 8.438 1602.72 8.438C1600.25 8.438 1598.24 10.258 1598.24 12.832V18.708C1598.24 21.282 1600.25 23.102 1602.72 23.102ZM1624.83 25.26C1620.67 25.26 1617.73 22.27 1617.73 18.292C1617.73 14.314 1620.67 11.324 1624.83 11.324C1626.52 11.324 1628 11.87 1629.15 12.91V15.172C1628.08 14.106 1626.75 13.378 1625.04 13.378C1622.2 13.378 1620.02 15.51 1620.02 18.292C1620.02 21.074 1622.2 23.232 1625.04 23.232C1626.75 23.232 1628.08 22.478 1629.15 21.438V23.674C1628 24.74 1626.52 25.26 1624.83 25.26ZM1631.97 5.5H1634.23V25H1631.97V5.5ZM1638.7 9.608C1637.89 9.608 1637.27 8.958 1637.27 8.178C1637.27 7.372 1637.89 6.722 1638.7 6.722C1639.5 6.722 1640.15 7.372 1640.15 8.178C1640.15 8.958 1639.5 9.608 1638.7 9.608ZM1637.55 11.61H1639.81V25H1637.55V11.61ZM1650.13 11.324C1652.99 11.324 1655.51 13.014 1655.51 17.122V25H1653.23V17.434C1653.23 14.314 1651.41 13.3 1649.48 13.3C1646.96 13.3 1645.43 14.964 1645.43 17.746V25H1643.14V11.61H1645.09L1645.37 14.21C1646.21 12.39 1647.84 11.324 1650.13 11.324ZM1659.77 9.608C1658.96 9.608 1658.34 8.958 1658.34 8.178C1658.34 7.372 1658.96 6.722 1659.77 6.722C1660.58 6.722 1661.23 7.372 1661.23 8.178C1661.23 8.958 1660.58 9.608 1659.77 9.608ZM1658.63 11.61H1660.89V25H1658.63V11.61ZM1670.63 25.26C1666.47 25.26 1663.54 22.27 1663.54 18.292C1663.54 14.314 1666.47 11.324 1670.63 11.324C1672.32 11.324 1673.81 11.87 1674.95 12.91V15.172C1673.88 14.106 1672.56 13.378 1670.84 13.378C1668.01 13.378 1665.82 15.51 1665.82 18.292C1665.82 21.074 1668.01 23.232 1670.84 23.232C1672.56 23.232 1673.88 22.478 1674.95 21.438V23.674C1673.81 24.74 1672.32 25.26 1670.63 25.26ZM1682.63 25.26C1679.59 25.26 1677.1 23.934 1676.86 20.996L1679.1 20.918C1679.31 22.582 1680.79 23.44 1682.71 23.44C1684.48 23.44 1685.62 22.738 1685.62 21.49C1685.62 18.344 1677.51 19.904 1677.51 15.12C1677.51 12.806 1679.64 11.35 1682.37 11.35C1685.21 11.35 1687.26 12.988 1687.42 15.276L1685.23 15.354C1685.05 14.002 1683.96 13.118 1682.35 13.118C1680.84 13.118 1679.72 13.846 1679.72 14.99C1679.72 18.032 1687.91 16.394 1687.91 21.386C1687.91 23.882 1685.78 25.26 1682.63 25.26Z" fill="#828282"/>
<path d="M1586.28 137.842H1596.31V140H1583.88V138.44C1583.88 132.512 1593.89 131.862 1593.89 126.948C1593.89 124.894 1592.36 123.386 1590.15 123.386C1587.84 123.386 1586.28 125.05 1586.22 127.26H1583.88C1583.88 123.932 1586.43 121.28 1590.18 121.28C1593.56 121.28 1596.21 123.438 1596.21 126.974C1596.21 133.266 1587.06 133.838 1586.28 137.842ZM1605.41 140.26C1601.82 140.26 1598.62 137.764 1598.62 133.708V127.832C1598.62 123.776 1601.82 121.28 1605.41 121.28C1608.97 121.28 1612.19 123.776 1612.19 127.832V133.708C1612.19 137.764 1608.97 140.26 1605.41 140.26ZM1605.41 138.102C1607.85 138.102 1609.88 136.282 1609.88 133.708V127.832C1609.88 125.258 1607.85 123.438 1605.41 123.438C1602.94 123.438 1600.94 125.258 1600.94 127.832V133.708C1600.94 136.282 1602.94 138.102 1605.41 138.102ZM1616.82 137.842H1626.86V140H1614.43V138.44C1614.43 132.512 1624.44 131.862 1624.44 126.948C1624.44 124.894 1622.9 123.386 1620.69 123.386C1618.38 123.386 1616.82 125.05 1616.77 127.26H1614.43C1614.43 123.932 1616.98 121.28 1620.72 121.28C1624.1 121.28 1626.75 123.438 1626.75 126.974C1626.75 133.266 1617.6 133.838 1616.82 137.842ZM1638.4 130.12C1640.4 130.978 1641.52 132.694 1641.52 134.722C1641.52 137.972 1638.81 140.26 1635.1 140.26C1631.35 140.26 1628.67 137.972 1628.67 134.722C1628.67 132.668 1629.79 130.978 1631.79 130.12C1630.34 129.288 1629.48 127.936 1629.48 126.194C1629.48 123.152 1632.05 121.28 1635.1 121.28C1638.14 121.28 1640.71 123.152 1640.71 126.194C1640.71 127.962 1639.85 129.34 1638.4 130.12ZM1635.1 123.204C1633.43 123.204 1631.72 124.244 1631.72 126.22C1631.72 128.196 1633.43 129.262 1635.1 129.262C1636.79 129.262 1638.53 128.196 1638.53 126.22C1638.53 124.244 1636.79 123.204 1635.1 123.204ZM1635.1 138.206C1637.44 138.206 1639.23 136.776 1639.23 134.644C1639.23 132.512 1637.44 131.082 1635.1 131.082C1632.78 131.082 1630.99 132.512 1630.99 134.644C1630.99 136.776 1632.78 138.206 1635.1 138.206Z" fill="#828282"/>
<path d="M65 75L266 75" stroke="#012FB8" stroke-width="3"/>
<path d="M303 75L692 75" stroke="#373E40" stroke-width="3"/>
<path d="M729 75L1113 75" stroke="white" stroke-width="3"/>
<path d="M1149 75L1536 75" stroke="white" stroke-width="3"/>
<path d="M1523 75L1720 75" stroke="white" stroke-width="3"/>
<circle cx="284.5" cy="74.5" r="18.5" fill="#012FB8"/>
<circle cx="710.5" cy="74.5" r="17.5" fill="white" stroke="#373E40" stroke-width="2"/>
<circle cx="1131.5" cy="74.5" r="17.5" fill="white" stroke="#828282" stroke-width="2"/>
<circle cx="1554.5" cy="74.5" r="17.5" fill="white" stroke="#828282" stroke-width="2"/>
<circle cx="710.5" cy="74.5" r="5.5" fill="#373E40" stroke="#373E40" stroke-width="2"/>
<path fill-rule="evenodd" clip-rule="evenodd" d="M292 71.2L282.771 80L282.769 79.9986V80L277 74.5L279.307 72.3L282.769 75.6L289.693 69L292 71.2Z" fill="white"/>
</svg>
