<svg width="360" height="68" viewBox="0 0 360 68" fill="none" xmlns="http://www.w3.org/2000/svg">
<rect x="23" y="24" width="327" height="20" fill="#E4E4E4"/>
<path d="M132.72 4.252C134.304 4.252 135.528 5.368 135.528 7.132C135.528 8.776 134.268 10.12 132.492 10.12C130.62 10.12 129.48 8.8 129.48 7.324H130.548C130.572 8.332 131.328 9.148 132.492 9.148C133.548 9.148 134.46 8.344 134.46 7.168C134.46 5.884 133.572 5.176 132.516 5.176C131.784 5.176 130.908 5.524 130.632 6.352H129.576L130.32 1.48H134.928V2.428H131.172L130.776 4.984C131.28 4.516 131.964 4.252 132.72 4.252ZM142.4 10.12C140.48 10.12 139.124 8.74 139.124 6.904C139.124 5.068 140.48 3.688 142.4 3.688C143.18 3.688 143.864 3.94 144.392 4.42V5.464C143.9 4.972 143.288 4.636 142.496 4.636C141.188 4.636 140.18 5.62 140.18 6.904C140.18 8.188 141.188 9.184 142.496 9.184C143.288 9.184 143.9 8.836 144.392 8.356V9.388C143.864 9.88 143.18 10.12 142.4 10.12ZM145.694 0.999999H146.738V10H145.694V0.999999ZM148.8 2.896C148.428 2.896 148.14 2.596 148.14 2.236C148.14 1.864 148.428 1.564 148.8 1.564C149.172 1.564 149.472 1.864 149.472 2.236C149.472 2.596 149.172 2.896 148.8 2.896ZM148.272 3.82H149.316V10H148.272V3.82ZM154.078 3.688C155.398 3.688 156.562 4.468 156.562 6.364V10H155.506V6.508C155.506 5.068 154.666 4.6 153.778 4.6C152.614 4.6 151.906 5.368 151.906 6.652V10H150.85V3.82H151.75L151.882 5.02C152.266 4.18 153.022 3.688 154.078 3.688ZM158.526 2.896C158.154 2.896 157.866 2.596 157.866 2.236C157.866 1.864 158.154 1.564 158.526 1.564C158.898 1.564 159.198 1.864 159.198 2.236C159.198 2.596 158.898 2.896 158.526 2.896ZM157.998 3.82H159.042V10H157.998V3.82ZM163.541 10.12C161.621 10.12 160.265 8.74 160.265 6.904C160.265 5.068 161.621 3.688 163.541 3.688C164.321 3.688 165.005 3.94 165.533 4.42V5.464C165.041 4.972 164.429 4.636 163.637 4.636C162.329 4.636 161.321 5.62 161.321 6.904C161.321 8.188 162.329 9.184 163.637 9.184C164.429 9.184 165.041 8.836 165.533 8.356V9.388C165.005 9.88 164.321 10.12 163.541 10.12ZM169.078 10.12C167.674 10.12 166.522 9.508 166.414 8.152L167.446 8.116C167.542 8.884 168.226 9.28 169.114 9.28C169.93 9.28 170.458 8.956 170.458 8.38C170.458 6.928 166.714 7.648 166.714 5.44C166.714 4.372 167.698 3.7 168.958 3.7C170.266 3.7 171.214 4.456 171.286 5.512L170.278 5.548C170.194 4.924 169.69 4.516 168.946 4.516C168.25 4.516 167.734 4.852 167.734 5.38C167.734 6.784 171.514 6.028 171.514 8.332C171.514 9.484 170.53 10.12 169.078 10.12Z" fill="#373E40"/>
<path d="M137.512 63.004H142.144V64H136.408V63.28C136.408 60.544 141.028 60.244 141.028 57.976C141.028 57.028 140.32 56.332 139.3 56.332C138.232 56.332 137.512 57.1 137.488 58.12H136.408C136.408 56.584 137.584 55.36 139.312 55.36C140.872 55.36 142.096 56.356 142.096 57.988C142.096 60.892 137.872 61.156 137.512 63.004ZM146.342 64.12C144.686 64.12 143.21 62.968 143.21 61.096V58.384C143.21 56.512 144.686 55.36 146.342 55.36C147.986 55.36 149.474 56.512 149.474 58.384V61.096C149.474 62.968 147.986 64.12 146.342 64.12ZM146.342 63.124C147.47 63.124 148.406 62.284 148.406 61.096V58.384C148.406 57.196 147.47 56.356 146.342 56.356C145.202 56.356 144.278 57.196 144.278 58.384V61.096C144.278 62.284 145.202 63.124 146.342 63.124ZM151.61 63.004H156.242V64H150.506V63.28C150.506 60.544 155.126 60.244 155.126 57.976C155.126 57.028 154.418 56.332 153.398 56.332C152.33 56.332 151.61 57.1 151.586 58.12H150.506C150.506 56.584 151.682 55.36 153.41 55.36C154.97 55.36 156.194 56.356 156.194 57.988C156.194 60.892 151.97 61.156 151.61 63.004ZM160.44 58.336C161.988 58.336 163.176 59.512 163.176 61.156C163.176 62.836 161.952 64.12 160.164 64.12C158.364 64.12 157.128 62.836 157.128 61.204C157.128 60.688 157.284 60.016 157.752 59.248L160.092 55.468L161.268 55.48L159.384 58.552C159.684 58.408 160.02 58.336 160.44 58.336ZM160.164 63.124C161.28 63.124 162.108 62.296 162.108 61.156C162.108 60.016 161.28 59.188 160.164 59.188C159.012 59.188 158.196 60.004 158.196 61.156C158.196 62.296 159.036 63.124 160.164 63.124Z" fill="#373E40"/>
<path d="M52.348 9.052H54.316V10H49.3V9.052H51.268V2.776L49.444 3.316V2.332L52.348 1.48V9.052ZM60.9117 10.12C58.9917 10.12 57.6357 8.74 57.6357 6.904C57.6357 5.068 58.9917 3.688 60.9117 3.688C61.6917 3.688 62.3757 3.94 62.9037 4.42V5.464C62.4117 4.972 61.7997 4.636 61.0077 4.636C59.6997 4.636 58.6917 5.62 58.6917 6.904C58.6917 8.188 59.6997 9.184 61.0077 9.184C61.7997 9.184 62.4117 8.836 62.9037 8.356V9.388C62.3757 9.88 61.6917 10.12 60.9117 10.12ZM64.2055 0.999999H65.2495V10H64.2055V0.999999ZM67.3116 2.896C66.9396 2.896 66.6516 2.596 66.6516 2.236C66.6516 1.864 66.9396 1.564 67.3116 1.564C67.6836 1.564 67.9836 1.864 67.9836 2.236C67.9836 2.596 67.6836 2.896 67.3116 2.896ZM66.7836 3.82H67.8276V10H66.7836V3.82ZM72.5898 3.688C73.9098 3.688 75.0738 4.468 75.0738 6.364V10H74.0178V6.508C74.0178 5.068 73.1778 4.6 72.2898 4.6C71.1258 4.6 70.4178 5.368 70.4178 6.652V10H69.3618V3.82H70.2618L70.3938 5.02C70.7778 4.18 71.5338 3.688 72.5898 3.688ZM77.0382 2.896C76.6662 2.896 76.3782 2.596 76.3782 2.236C76.3782 1.864 76.6662 1.564 77.0382 1.564C77.4102 1.564 77.7102 1.864 77.7102 2.236C77.7102 2.596 77.4102 2.896 77.0382 2.896ZM76.5102 3.82H77.5542V10H76.5102V3.82ZM82.0523 10.12C80.1323 10.12 78.7763 8.74 78.7763 6.904C78.7763 5.068 80.1323 3.688 82.0523 3.688C82.8323 3.688 83.5163 3.94 84.0443 4.42V5.464C83.5523 4.972 82.9403 4.636 82.1483 4.636C80.8403 4.636 79.8323 5.62 79.8323 6.904C79.8323 8.188 80.8403 9.184 82.1483 9.184C82.9403 9.184 83.5523 8.836 84.0443 8.356V9.388C83.5163 9.88 82.8323 10.12 82.0523 10.12Z" fill="#012FB8"/>
<path d="M54.512 63.004H59.144V64H53.408V63.28C53.408 60.544 58.028 60.244 58.028 57.976C58.028 57.028 57.32 56.332 56.3 56.332C55.232 56.332 54.512 57.1 54.488 58.12H53.408C53.408 56.584 54.584 55.36 56.312 55.36C57.872 55.36 59.096 56.356 59.096 57.988C59.096 60.892 54.872 61.156 54.512 63.004ZM63.3422 64.12C61.6862 64.12 60.2102 62.968 60.2102 61.096V58.384C60.2102 56.512 61.6862 55.36 63.3422 55.36C64.9862 55.36 66.4742 56.512 66.4742 58.384V61.096C66.4742 62.968 64.9862 64.12 63.3422 64.12ZM63.3422 63.124C64.4702 63.124 65.4062 62.284 65.4062 61.096V58.384C65.4062 57.196 64.4702 56.356 63.3422 56.356C62.2022 56.356 61.2782 57.196 61.2782 58.384V61.096C61.2782 62.284 62.2022 63.124 63.3422 63.124ZM68.6097 63.004H73.2417V64H67.5057V63.28C67.5057 60.544 72.1257 60.244 72.1257 57.976C72.1257 57.028 71.4177 56.332 70.3977 56.332C69.3297 56.332 68.6097 57.1 68.5857 58.12H67.5057C67.5057 56.584 68.6817 55.36 70.4097 55.36C71.9697 55.36 73.1937 56.356 73.1937 57.988C73.1937 60.892 68.9697 61.156 68.6097 63.004ZM78.8863 61.324H80.2303V62.188H78.8863V64H77.8423V62.188H73.7263V61.444L77.8903 55.48H78.8863V61.324ZM77.9383 56.824L74.8543 61.324H77.8423V58.036C77.8423 57.52 77.8783 57.1 77.9383 56.824Z" fill="#012FB8"/>
<path d="M213.144 2.428V1.48H218.796V2.296L215.64 10H214.512L217.656 2.428H213.144ZM225.451 10.12C223.531 10.12 222.175 8.74 222.175 6.904C222.175 5.068 223.531 3.688 225.451 3.688C226.231 3.688 226.915 3.94 227.443 4.42V5.464C226.951 4.972 226.339 4.636 225.547 4.636C224.239 4.636 223.231 5.62 223.231 6.904C223.231 8.188 224.239 9.184 225.547 9.184C226.339 9.184 226.951 8.836 227.443 8.356V9.388C226.915 9.88 226.231 10.12 225.451 10.12ZM228.745 0.999999H229.789V10H228.745V0.999999ZM231.851 2.896C231.479 2.896 231.191 2.596 231.191 2.236C231.191 1.864 231.479 1.564 231.851 1.564C232.223 1.564 232.523 1.864 232.523 2.236C232.523 2.596 232.223 2.896 231.851 2.896ZM231.323 3.82H232.367V10H231.323V3.82ZM237.129 3.688C238.449 3.688 239.613 4.468 239.613 6.364V10H238.557V6.508C238.557 5.068 237.717 4.6 236.829 4.6C235.665 4.6 234.957 5.368 234.957 6.652V10H233.901V3.82H234.801L234.933 5.02C235.317 4.18 236.073 3.688 237.129 3.688ZM241.577 2.896C241.205 2.896 240.917 2.596 240.917 2.236C240.917 1.864 241.205 1.564 241.577 1.564C241.949 1.564 242.249 1.864 242.249 2.236C242.249 2.596 241.949 2.896 241.577 2.896ZM241.049 3.82H242.093V10H241.049V3.82ZM246.591 10.12C244.671 10.12 243.315 8.74 243.315 6.904C243.315 5.068 244.671 3.688 246.591 3.688C247.371 3.688 248.055 3.94 248.583 4.42V5.464C248.091 4.972 247.479 4.636 246.687 4.636C245.379 4.636 244.371 5.62 244.371 6.904C244.371 8.188 245.379 9.184 246.687 9.184C247.479 9.184 248.091 8.836 248.583 8.356V9.388C248.055 9.88 247.371 10.12 246.591 10.12ZM252.129 10.12C250.725 10.12 249.573 9.508 249.465 8.152L250.497 8.116C250.593 8.884 251.277 9.28 252.165 9.28C252.981 9.28 253.509 8.956 253.509 8.38C253.509 6.928 249.765 7.648 249.765 5.44C249.765 4.372 250.749 3.7 252.009 3.7C253.317 3.7 254.265 4.456 254.337 5.512L253.329 5.548C253.245 4.924 252.741 4.516 251.997 4.516C251.301 4.516 250.785 4.852 250.785 5.38C250.785 6.784 254.565 6.028 254.565 8.332C254.565 9.484 253.581 10.12 252.129 10.12Z" fill="#828282"/>
<path d="M221.512 63.004H226.144V64H220.408V63.28C220.408 60.544 225.028 60.244 225.028 57.976C225.028 57.028 224.32 56.332 223.3 56.332C222.232 56.332 221.512 57.1 221.488 58.12H220.408C220.408 56.584 221.584 55.36 223.312 55.36C224.872 55.36 226.096 56.356 226.096 57.988C226.096 60.892 221.872 61.156 221.512 63.004ZM230.342 64.12C228.686 64.12 227.21 62.968 227.21 61.096V58.384C227.21 56.512 228.686 55.36 230.342 55.36C231.986 55.36 233.474 56.512 233.474 58.384V61.096C233.474 62.968 231.986 64.12 230.342 64.12ZM230.342 63.124C231.47 63.124 232.406 62.284 232.406 61.096V58.384C232.406 57.196 231.47 56.356 230.342 56.356C229.202 56.356 228.278 57.196 228.278 58.384V61.096C228.278 62.284 229.202 63.124 230.342 63.124ZM235.61 63.004H240.242V64H234.506V63.28C234.506 60.544 239.126 60.244 239.126 57.976C239.126 57.028 238.418 56.332 237.398 56.332C236.33 56.332 235.61 57.1 235.586 58.12H234.506C234.506 56.584 235.682 55.36 237.41 55.36C238.97 55.36 240.194 56.356 240.194 57.988C240.194 60.892 235.97 61.156 235.61 63.004ZM240.816 56.428V55.48H246.468V56.296L243.312 64H242.184L245.328 56.428H240.816Z" fill="#828282"/>
<path d="M296.348 9.052H298.316V10H293.3V9.052H295.268V2.776L293.444 3.316V2.332L296.348 1.48V9.052ZM302.1 10.12C300.444 10.12 298.968 8.968 298.968 7.096V4.384C298.968 2.512 300.444 1.36 302.1 1.36C303.744 1.36 305.232 2.512 305.232 4.384V7.096C305.232 8.968 303.744 10.12 302.1 10.12ZM302.1 9.124C303.228 9.124 304.164 8.284 304.164 7.096V4.384C304.164 3.196 303.228 2.356 302.1 2.356C300.96 2.356 300.036 3.196 300.036 4.384V7.096C300.036 8.284 300.96 9.124 302.1 9.124ZM312.306 10.12C310.386 10.12 309.03 8.74 309.03 6.904C309.03 5.068 310.386 3.688 312.306 3.688C313.086 3.688 313.77 3.94 314.298 4.42V5.464C313.806 4.972 313.194 4.636 312.402 4.636C311.094 4.636 310.086 5.62 310.086 6.904C310.086 8.188 311.094 9.184 312.402 9.184C313.194 9.184 313.806 8.836 314.298 8.356V9.388C313.77 9.88 313.086 10.12 312.306 10.12ZM315.6 0.999999H316.644V10H315.6V0.999999ZM318.706 2.896C318.334 2.896 318.046 2.596 318.046 2.236C318.046 1.864 318.334 1.564 318.706 1.564C319.078 1.564 319.378 1.864 319.378 2.236C319.378 2.596 319.078 2.896 318.706 2.896ZM318.178 3.82H319.222V10H318.178V3.82ZM323.984 3.688C325.304 3.688 326.468 4.468 326.468 6.364V10H325.412V6.508C325.412 5.068 324.572 4.6 323.684 4.6C322.52 4.6 321.812 5.368 321.812 6.652V10H320.756V3.82H321.656L321.788 5.02C322.172 4.18 322.928 3.688 323.984 3.688ZM328.433 2.896C328.061 2.896 327.773 2.596 327.773 2.236C327.773 1.864 328.061 1.564 328.433 1.564C328.805 1.564 329.105 1.864 329.105 2.236C329.105 2.596 328.805 2.896 328.433 2.896ZM327.905 3.82H328.949V10H327.905V3.82ZM333.447 10.12C331.527 10.12 330.171 8.74 330.171 6.904C330.171 5.068 331.527 3.688 333.447 3.688C334.227 3.688 334.911 3.94 335.439 4.42V5.464C334.947 4.972 334.335 4.636 333.543 4.636C332.235 4.636 331.227 5.62 331.227 6.904C331.227 8.188 332.235 9.184 333.543 9.184C334.335 9.184 334.947 8.836 335.439 8.356V9.388C334.911 9.88 334.227 10.12 333.447 10.12ZM338.985 10.12C337.581 10.12 336.429 9.508 336.321 8.152L337.353 8.116C337.449 8.884 338.133 9.28 339.021 9.28C339.837 9.28 340.365 8.956 340.365 8.38C340.365 6.928 336.621 7.648 336.621 5.44C336.621 4.372 337.605 3.7 338.865 3.7C340.173 3.7 341.121 4.456 341.193 5.512L340.185 5.548C340.101 4.924 339.597 4.516 338.853 4.516C338.157 4.516 337.641 4.852 337.641 5.38C337.641 6.784 341.421 6.028 341.421 8.332C341.421 9.484 340.437 10.12 338.985 10.12Z" fill="#828282"/>
<path d="M305.512 63.004H310.144V64H304.408V63.28C304.408 60.544 309.028 60.244 309.028 57.976C309.028 57.028 308.32 56.332 307.3 56.332C306.232 56.332 305.512 57.1 305.488 58.12H304.408C304.408 56.584 305.584 55.36 307.312 55.36C308.872 55.36 310.096 56.356 310.096 57.988C310.096 60.892 305.872 61.156 305.512 63.004ZM314.342 64.12C312.686 64.12 311.21 62.968 311.21 61.096V58.384C311.21 56.512 312.686 55.36 314.342 55.36C315.986 55.36 317.474 56.512 317.474 58.384V61.096C317.474 62.968 315.986 64.12 314.342 64.12ZM314.342 63.124C315.47 63.124 316.406 62.284 316.406 61.096V58.384C316.406 57.196 315.47 56.356 314.342 56.356C313.202 56.356 312.278 57.196 312.278 58.384V61.096C312.278 62.284 313.202 63.124 314.342 63.124ZM319.61 63.004H324.242V64H318.506V63.28C318.506 60.544 323.126 60.244 323.126 57.976C323.126 57.028 322.418 56.332 321.398 56.332C320.33 56.332 319.61 57.1 319.586 58.12H318.506C318.506 56.584 319.682 55.36 321.41 55.36C322.97 55.36 324.194 56.356 324.194 57.988C324.194 60.892 319.97 61.156 319.61 63.004ZM329.568 59.44C330.492 59.836 331.008 60.628 331.008 61.564C331.008 63.064 329.76 64.12 328.044 64.12C326.316 64.12 325.08 63.064 325.08 61.564C325.08 60.616 325.596 59.836 326.52 59.44C325.848 59.056 325.452 58.432 325.452 57.628C325.452 56.224 326.64 55.36 328.044 55.36C329.448 55.36 330.636 56.224 330.636 57.628C330.636 58.444 330.24 59.08 329.568 59.44ZM328.044 56.248C327.276 56.248 326.484 56.728 326.484 57.64C326.484 58.552 327.276 59.044 328.044 59.044C328.824 59.044 329.628 58.552 329.628 57.64C329.628 56.728 328.824 56.248 328.044 56.248ZM328.044 63.172C329.124 63.172 329.952 62.512 329.952 61.528C329.952 60.544 329.124 59.884 328.044 59.884C326.976 59.884 326.148 60.544 326.148 61.528C326.148 62.512 326.976 63.172 328.044 63.172Z" fill="#828282"/>
<path d="M23 34L63 34" stroke="#012FB8" stroke-width="3"/>
<path d="M70 34L147 34" stroke="#373E40" stroke-width="3"/>
<path d="M154 34L230 34" stroke="white" stroke-width="3"/>
<path d="M237 34L314 34" stroke="white" stroke-width="3"/>
<path d="M311 34L350 34" stroke="white" stroke-width="3"/>
<circle cx="66.5" cy="33.5" r="4.5" fill="#012FB8"/>
<circle cx="150.5" cy="33.5" r="3.5" fill="white" stroke="#373E40" stroke-width="2"/>
<circle cx="233.5" cy="33.5" r="3.5" fill="white" stroke="#828282" stroke-width="2"/>
<circle cx="317.5" cy="33.5" r="3.5" fill="white" stroke="#828282" stroke-width="2"/>
<circle cx="150.5" cy="33.5" r="1" fill="#373E40" stroke="#373E40"/>
<path fill-rule="evenodd" clip-rule="evenodd" d="M68 32.6L66.1541 35L66.1538 34.9996V35L65 33.5L65.4614 32.9L66.1538 33.8L67.5386 32L68 32.6Z" fill="white"/>
<path d="M16.0605 32.1816V35.8184H11.2119V32.1816H16.0605ZM23.9385 39.7578H28.7881V42.7881H23.9385V39.7578ZM23.9385 32.4844H28.7881V35.5156H23.9385V32.4844ZM23.9385 25.2119H28.7881V28.2422H23.9385V25.2119Z" fill="#373E40" stroke="#373E40" stroke-width="2.42424"/>
</svg>
