<svg width="90" height="90" viewBox="0 0 90 90" fill="none" xmlns="http://www.w3.org/2000/svg">
<path d="M17.3675 85.0125C17.2694 84.9295 17.167 84.8574 17.0689 84.7966C16.9663 84.7375 16.8193 84.6636 16.6276 84.5824C17.4321 84.2112 17.8354 83.6408 17.8354 82.8692C17.8354 82.5295 17.764 82.223 17.6214 81.9498C17.4788 81.6767 17.2783 81.444 17.0198 81.252C16.7591 81.06 16.4404 80.9104 16.0661 80.8053C15.6917 80.6982 15.2773 80.6465 14.8227 80.6465H10.9055V88.7214H14.9876C15.4422 88.7214 15.8566 88.666 16.2265 88.5571C16.5964 88.4482 16.9083 88.2931 17.1712 88.0918C17.4298 87.8906 17.628 87.6506 17.7639 87.3662C17.9021 87.082 17.9711 86.7626 17.9711 86.4063C17.9711 86.1201 17.9243 85.8635 17.8262 85.6364C17.7307 85.4095 17.577 85.2028 17.3675 85.0125ZM12.8086 82.0533H14.6714C15.0636 82.0533 15.371 82.1346 15.596 82.3007C15.8189 82.4668 15.9324 82.6958 15.9324 82.982C15.9324 83.27 15.8188 83.497 15.596 83.6633C15.371 83.8294 15.0636 83.9124 14.6714 83.9124H12.8086V82.0533ZM15.7252 87.0489C15.4958 87.2261 15.1882 87.3147 14.796 87.3147H12.8086V85.3301H14.7962C15.1883 85.3301 15.4958 85.4169 15.7254 85.5904C15.955 85.764 16.0664 86.0076 16.0664 86.3178C16.0664 86.6279 15.9548 86.8717 15.7252 87.0489Z" fill="#012FB8"/>
<path d="M30.8041 80.6465L27.0554 88.7214H29.1535L29.7774 87.2925H33.4365L34.0441 88.7214H36.1398L32.3793 80.6465H30.8041ZM30.3401 85.9652L31.6423 83.0281L32.8997 85.9652H30.3401Z" fill="#012FB8"/>
<path d="M51.2393 85.5904L47.0621 80.6465H45.2241V88.7214H47.2839V83.7646L51.4613 88.7214H53.2991V80.6465H51.2393V85.5904Z" fill="#012FB8"/>
<path d="M70.2187 80.6465H67.8488L64.3313 84.1615V80.6465H62.3833V88.7214H64.3313V86.2938L65.6225 85.0476L68.1863 88.7214H70.4583L66.9112 83.8551L70.2187 80.6465Z" fill="#012FB8"/>
<path d="M39.6724 11L9.896 21.9596V28.2815H12.3774V30.178H66.9675V28.2815H69.4488V21.9596L39.6724 11Z" fill="#012FB8"/>
<path d="M66.9675 66.5151H12.3774V71.562H9.896V76.6088H69.4488V71.562H66.9675V66.5151Z" fill="#012FB8"/>
<path d="M53.2991 61.9633V64.4966H63.3928V61.9633H62.1311V34.7301H63.3928V32.1968H53.2991V34.7301H54.5608V61.9633H53.2991Z" fill="#012FB8"/>
<path d="M35.1304 61.9633V64.4966H45.2241V61.9633H43.9624V34.7301H45.2241V32.1968H35.1304V34.7301H36.3921V61.9633H35.1304Z" fill="#012FB8"/>
<path d="M15.9524 61.9633V64.4966H26.0461V61.9633H24.7844V34.7301H26.0461V32.1968H15.9524V34.7301H17.2141V61.9633H15.9524Z" fill="#012FB8"/>
</svg>
