<svg width="113" height="128" viewBox="0 0 113 128" fill="none" xmlns="http://www.w3.org/2000/svg">
<path d="M51.5895 77.4885H72.8788C72.6882 70.1287 71.6265 63.082 69.7752 56.7832C64.0853 58.13 57.9327 58.9056 51.5894 59.0551V77.4885H51.5895Z" fill="#373E40"/>
<path d="M51.5898 126.477C53.7406 126.041 55.8368 124.994 57.8786 123.375C60.7236 121.103 63.3099 117.797 65.5558 113.566C66.563 111.662 67.4752 109.635 68.2783 107.485C63.0647 106.288 57.4294 105.594 51.6035 105.445V126.477H51.5898Z" fill="#373E40"/>
<path d="M46.8255 126.477V105.445C40.9995 105.595 35.3641 106.288 30.1506 107.485C30.9537 109.635 31.8659 111.662 32.8731 113.566C35.119 117.797 37.6917 121.103 40.5503 123.375C42.5785 124.994 44.6749 126.041 46.8255 126.477Z" fill="#373E40"/>
<path d="M51.5898 100.683C57.9467 100.833 64.0857 101.609 69.7757 102.955C71.6134 96.6566 72.6886 89.6098 72.8793 82.25H51.59L51.5898 100.683Z" fill="#373E40"/>
<path d="M46.8254 82.25H25.5361C25.7267 89.6099 26.7884 96.6566 28.6397 102.955C34.3295 101.609 40.4822 100.833 46.8254 100.683V82.25Z" fill="#373E40"/>
<path d="M46.8254 59.0551C40.4686 58.9054 34.3295 58.13 28.6397 56.7832C26.8021 63.082 25.7267 70.1289 25.5361 77.4885H46.8254V59.0551Z" fill="#373E40"/>
<path d="M38.7399 127.986C34.9556 125.334 31.5255 121.212 28.6532 115.797C27.4826 113.593 26.4345 111.226 25.5225 108.709C21.888 109.812 18.5122 111.172 15.4904 112.763C14.8234 113.117 14.1836 113.471 13.571 113.838C20.2411 120.844 28.9528 125.878 38.7399 127.986Z" fill="#373E40"/>
<path d="M28.6533 43.9409C31.5256 38.5129 34.9557 34.4045 38.74 31.7517C28.9393 33.8739 20.2275 38.8938 13.5576 45.8863C14.1702 46.2536 14.8099 46.6209 15.4769 46.961C18.5124 48.5663 21.8746 49.9267 25.509 51.015C26.4347 48.5119 27.4828 46.1448 28.6533 43.9409Z" fill="#373E40"/>
<path d="M88.0159 110.206C94.1141 102.425 97.9118 92.7659 98.4154 82.25H77.6434C77.4528 90.018 76.3365 97.4865 74.3765 104.193C78.2695 105.377 81.8903 106.832 85.1572 108.56C86.1511 109.091 87.1039 109.635 88.0159 110.206Z" fill="#373E40"/>
<path d="M46.8255 33.2617C44.6748 33.697 42.5785 34.7446 40.5367 36.3634C37.6919 38.6353 35.1056 41.9411 32.8596 46.1719C31.8523 48.0765 30.9402 50.1035 30.1372 52.2529C35.3506 53.4501 40.986 54.1439 46.812 54.2935V33.2617H46.8255Z" fill="#373E40"/>
<path d="M95.5704 63.1634C92.8343 66.4556 90.8743 68.6458 90.602 68.9587L90.5748 68.9996C88.9686 70.8224 86.1237 70.8224 84.5174 68.9996L84.4902 68.9587C84.0818 68.4963 79.8621 63.7621 74.9209 57.4771C76.5406 63.6669 77.48 70.4551 77.6569 77.4886H98.4291C98.1704 72.4821 97.1902 67.6662 95.5704 63.1634Z" fill="#373E40"/>
<path d="M10.3996 49.5322C4.30142 57.3137 0.503648 66.9591 0 77.4885H20.7721C20.9626 69.7206 22.0788 62.252 24.039 55.5452C20.1459 54.3616 16.5251 52.906 13.2582 51.1783C12.2645 50.6342 11.3117 50.09 10.3996 49.5322Z" fill="#373E40"/>
<path d="M84.8579 113.852C84.2453 113.485 83.6056 113.117 82.9384 112.777C79.9029 111.172 76.5407 109.811 72.9064 108.723C71.9807 111.226 70.9327 113.593 69.7757 115.811C66.9034 121.239 63.4731 125.347 59.689 128C69.4625 125.878 78.1742 120.844 84.8579 113.852Z" fill="#373E40"/>
<path d="M10.3996 110.206C11.3117 109.648 12.2645 109.091 13.2582 108.574C16.5251 106.846 20.1459 105.377 24.039 104.207C22.0924 97.4999 20.9626 90.0313 20.7721 82.2634H0C0.503648 92.7656 4.30142 102.424 10.3996 110.206Z" fill="#373E40"/>
<path d="M57.8786 36.3634C55.8504 34.7446 53.7406 33.697 51.5898 33.2617V54.2935C57.4158 54.1439 63.0512 53.4501 68.2647 52.2529C67.4617 50.1035 66.5495 48.0765 65.5422 46.1719C63.3099 41.9275 60.7236 38.6353 57.8786 36.3634Z" fill="#373E40"/>
<path d="M111.17 15.6582C109.877 12.6109 108.026 9.86291 105.671 7.50941C103.316 5.15592 100.58 3.30577 97.5172 2.01339C94.3592 0.680201 90.997 0 87.5396 0C84.0821 0 80.7198 0.680201 77.5618 2.01339C74.5128 3.30577 71.763 5.15592 69.4082 7.50941C67.0534 9.86291 65.2021 12.5973 63.909 15.6582C61.486 21.3719 61.5268 27.8746 63.6776 33.6019C64.0316 34.5542 64.44 35.4793 64.9164 36.3771C67.3802 41.0841 71.0146 46.4033 74.6627 51.2735C75.6836 52.6477 76.7181 53.9807 77.7118 55.2459C80.7745 59.1502 83.5786 62.4968 85.4162 64.619C86.5324 65.925 88.547 65.925 89.6768 64.619C90.7521 63.3675 92.1814 61.6804 93.8013 59.7079C98.9876 53.3684 106.161 44.0496 110.177 36.377C113.47 30.0513 113.988 22.3242 111.17 15.6582ZM87.5394 11.0873C95.5161 11.0873 101.968 17.5492 101.968 25.5075C101.968 25.7252 101.968 25.9428 101.954 26.1605C101.873 28.0379 101.424 29.82 100.689 31.4525C99.3138 34.4998 96.9044 36.9757 93.9097 38.4585C91.9903 39.4108 89.8124 39.9414 87.5257 39.9414C87.3896 39.9414 87.2672 39.9414 87.1311 39.9414C79.3449 39.7373 73.0969 33.357 73.0969 25.5211C73.0969 25.0994 73.1106 24.6777 73.1513 24.2696C73.8048 16.8826 79.9983 11.0873 87.5394 11.0873Z" fill="#373E40"/>
</svg>
