<svg width="58" height="58" viewBox="0 0 58 58" fill="none" xmlns="http://www.w3.org/2000/svg">
<g clip-path="url(#clip0_1_486)">
<path d="M37.614 20.5036C36.9107 20.8859 36.0328 20.6263 35.6552 19.9277C35.2729 19.2244 35.5325 18.3465 36.2358 17.9689C39.5587 16.1658 41.1068 13.8341 41.4184 11.5544C41.5836 10.3366 41.3948 9.11409 40.9369 7.98128C40.4696 6.83431 39.7286 5.79117 38.7893 4.95101C36.9626 3.31787 34.3997 2.45882 31.7234 3.12435C30.6378 3.39339 29.6985 3.93619 28.8772 4.70084C28.004 5.51269 27.2488 6.5747 26.588 7.83024C26.2151 8.53825 25.3419 8.80729 24.6386 8.43912C23.9306 8.06624 23.6615 7.19303 24.0297 6.48974C24.8416 4.95101 25.7903 3.62939 26.9137 2.58154C28.0889 1.49121 29.453 0.707679 31.039 0.315914C34.7206 -0.595056 38.2276 0.566077 40.7198 2.79394C41.9848 3.92675 42.9902 5.33805 43.6226 6.89567C44.2598 8.46744 44.5194 10.195 44.2787 11.9461C43.8492 15.0708 41.8479 18.2049 37.614 20.5036ZM26.5408 31.9119C21.0655 24.5581 20.9333 17.5913 27.5792 11.1154L22.793 8.47217C18.9604 6.98063 11.9275 17.9736 14.6462 20.9095L18.3751 26.4414L17.6057 28.0462C17.3933 28.5229 17.601 28.8581 18.1202 29.0894L18.6252 29.2262L8.92554 48.4227L10.8891 52.6094L14.8162 51.453L15.8263 49.4894L14.8586 47.6769L16.9921 47.2191L17.4877 46.2562L16.3738 44.557L17.1054 43.1362L19.2341 42.8672L19.928 41.522L18.7385 39.9691L19.4985 38.4964L21.6697 38.1424L24.6244 32.5019L25.1248 32.7757C25.9932 33.3044 26.4417 32.9645 26.5408 31.9119ZM36.8446 36.5234L35.4003 41.9137L33.3943 42.7067L32.9742 44.2785L34.4374 45.5199L34.0551 46.95L32.0727 47.6486L31.6667 49.159L33.0875 50.5514L32.8137 51.5757L30.8643 52.4583L32.1671 53.9923L31.6054 56.0833L28.0889 58.0044L25.3419 54.403L30.5811 34.8478L29.3114 34.508C29.0518 34.4372 28.8914 34.1681 28.9622 33.9038L29.4955 31.9167C25.6534 29.0044 23.7512 23.9634 25.0728 19.0215C26.7721 12.673 33.1819 8.84033 39.5351 10.2658C39.5634 10.6056 39.5587 10.9502 39.5115 11.2948C39.3935 12.1538 39.0206 13.0365 38.3315 13.8908C38.2371 14.0041 38.1379 14.1221 38.0341 14.2353C36.0045 14.1032 34.1023 15.4154 33.5548 17.4544C33.3188 18.3324 33.3707 19.2197 33.6492 20.0174C33.7153 20.3006 33.8238 20.5744 33.9654 20.8434C34.3005 21.457 34.7914 21.9243 35.3673 22.2217C35.7449 22.4718 36.1697 22.6606 36.6275 22.7881C38.9073 23.397 41.2437 22.0848 41.9234 19.8428C42.6125 19.2339 43.212 18.592 43.7265 17.9312C44.7271 16.6426 45.4115 15.2738 45.8175 13.8813C48.574 16.855 49.787 21.1361 48.6589 25.3464C47.3373 30.2882 43.1601 33.7056 38.3834 34.305L37.85 36.2922C37.7792 36.5518 37.5102 36.7122 37.2458 36.6414L36.8446 36.5234Z" fill="white"/>
</g>
<defs>
<clipPath id="clip0_1_486">
<rect width="58" height="58" fill="white"/>
</clipPath>
</defs>
</svg>
