<svg width="86" height="111" viewBox="0 0 86 111" fill="none" xmlns="http://www.w3.org/2000/svg">
<path d="M62.7001 111C62.6948 111 62.6894 111 62.6846 111H1.78689C0.79993 111 0 110.193 0 109.197V1.80338C0 0.807314 0.79993 0 1.78689 0H84.2131C85.2 0 85.9999 0.807314 85.9999 1.80338V86.893C86.0005 86.9669 85.9964 87.0403 85.988 87.113V87.1142C85.988 87.1154 85.988 87.1166 85.9874 87.1178V87.1196C85.9874 87.1208 85.9874 87.122 85.9868 87.1238C85.9868 87.125 85.9868 87.1262 85.9868 87.1274C85.9779 87.2014 85.9642 87.2741 85.9469 87.3456C85.9469 87.3456 85.9463 87.3468 85.9463 87.348L85.9457 87.3498C85.9457 87.351 85.9451 87.3522 85.9451 87.3534C85.8713 87.6438 85.7254 87.9173 85.5133 88.1439C85.5121 88.1451 85.5109 88.1463 85.5097 88.1475C85.5085 88.1487 85.5074 88.1499 85.5062 88.1511C85.505 88.1524 85.5044 88.1529 85.5032 88.1541L85.502 88.1553C85.502 88.1553 85.5008 88.1572 85.4996 88.1578L85.4984 88.159C85.4972 88.1602 85.496 88.1614 85.4949 88.1626L63.9825 110.454C63.9801 110.456 63.9771 110.459 63.9748 110.462C63.9736 110.463 63.9724 110.464 63.9706 110.466C63.9694 110.467 63.9682 110.469 63.967 110.47C63.967 110.47 63.9646 110.472 63.9634 110.473L63.9622 110.474C63.9617 110.475 63.9605 110.476 63.9599 110.477L63.9581 110.478L63.9563 110.48C63.9563 110.48 63.9551 110.481 63.9539 110.482C63.7204 110.713 63.4333 110.871 63.1284 110.946C63.126 110.947 63.1248 110.947 63.123 110.947C63.123 110.947 63.1206 110.948 63.1182 110.948C63.1165 110.948 63.1153 110.949 63.1135 110.95C63.1123 110.95 63.1099 110.95 63.1087 110.951C63.1069 110.951 63.104 110.952 63.104 110.952C63.1022 110.952 63.0986 110.953 63.0986 110.953C63.0825 110.956 63.0664 110.96 63.0498 110.963C63.048 110.963 63.0462 110.963 63.0444 110.964C63.045 110.966 63.0414 110.965 63.039 110.965C63.0378 110.964 63.036 110.965 63.0343 110.965C63.0307 110.966 63.0307 110.966 63.0289 110.966C63.0277 110.966 63.0259 110.967 63.0241 110.967C63.0229 110.967 63.0212 110.968 63.0188 110.968C63.017 110.968 63.0158 110.969 63.014 110.968C62.908 110.991 62.8043 111 62.7001 111ZM3.57378 107.393H60.9138V86.9056C60.9138 85.9095 61.7138 85.1022 62.7007 85.1022H82.4262V3.60677H3.57378V107.393ZM64.4876 88.709V104.76L79.9781 88.709H64.4876ZM67.2692 78.8619H12.2485C11.2616 78.8619 10.4616 78.0546 10.4616 77.0585C10.4616 76.0625 11.2616 75.2552 12.2485 75.2552H67.2698C68.2567 75.2552 69.0567 76.0625 69.0567 77.0585C69.0567 78.0546 68.2561 78.8619 67.2692 78.8619ZM73.4566 70.7215H12.2485C11.2616 70.7215 10.4616 69.9141 10.4616 68.9181C10.4616 67.922 11.2616 67.1147 12.2485 67.1147H73.4566C74.4435 67.1147 75.2435 67.922 75.2435 68.9181C75.2435 69.9141 74.4435 70.7215 73.4566 70.7215ZM24.3213 59.3866C24.2403 59.3866 24.1593 59.3812 24.0777 59.3698L10.4366 57.4756C9.94522 57.4071 9.50386 57.136 9.21856 56.726C8.93325 56.316 8.82961 55.8057 8.93206 55.3158L13.1813 35.0373C10.1638 32.0094 8.43471 27.7126 8.804 23.1073C9.46991 14.8088 16.6973 8.60213 24.9235 9.276C33.1462 9.94806 39.2943 17.2457 38.6283 25.5443C38.3246 29.3302 36.6538 32.6809 34.1462 35.1413L38.2406 51.2798C38.3657 51.7721 38.2787 52.2951 38.0017 52.7195C37.7248 53.1439 37.2828 53.4306 36.7855 53.5088L26.1636 55.1811L26.1082 57.6241C26.0963 58.138 25.8682 58.6226 25.4804 58.9556C25.1552 59.2357 24.7436 59.3866 24.3213 59.3866ZM12.8257 54.1658L22.5809 55.5207L22.946 39.4045C22.8007 39.3967 22.6554 39.3871 22.5094 39.3751C20.2615 39.1911 18.1685 38.5124 16.328 37.4533L12.8257 54.1658ZM26.2619 50.8277L26.4144 51.4914L34.2904 50.2513L31.0508 37.4803C29.6594 38.2732 28.1346 38.8467 26.5264 39.158L26.2619 50.8277ZM23.6971 12.8323C21.0001 12.8323 18.4175 13.7875 16.3399 15.5698C14.0223 17.5583 12.6113 20.3385 12.3659 23.3983C11.859 29.7143 16.5388 35.2694 22.7977 35.7809C29.0548 36.2949 34.5596 31.5694 35.0665 25.2534C35.5734 18.9373 30.8941 13.3823 24.6352 12.8707C24.3213 12.8449 24.0086 12.8323 23.6971 12.8323ZM73.4566 37.9955H48.2079C47.2209 37.9955 46.421 37.1882 46.421 36.1921C46.421 35.196 47.2209 34.3887 48.2079 34.3887H73.4566C74.4435 34.3887 75.2435 35.196 75.2435 36.1921C75.2435 37.1882 74.4435 37.9955 73.4566 37.9955ZM69.8506 28.3967H48.2079C47.2209 28.3967 46.421 27.5893 46.421 26.5933C46.421 25.5972 47.2209 24.7899 48.2079 24.7899H69.85C70.837 24.7899 71.6369 25.5972 71.6369 26.5933C71.6369 27.5893 70.837 28.3967 69.8506 28.3967ZM73.4566 18.2148H48.2079C47.2209 18.2148 46.421 17.4075 46.421 16.4114C46.421 15.4153 47.2209 14.608 48.2079 14.608H73.4566C74.4435 14.608 75.2435 15.4153 75.2435 16.4114C75.2435 17.4075 74.4435 18.2148 73.4566 18.2148Z" fill="white"/>
</svg>
