<svg width="66" height="76" viewBox="0 0 66 76" fill="none" xmlns="http://www.w3.org/2000/svg">
<g clip-path="url(#clip0_1_103)">
<path d="M35.8674 46.0063H23.4328C23.5441 41.6366 24.1642 37.4527 25.2455 33.7129C28.5689 34.5125 32.1624 34.973 35.8674 35.0618V46.0063H35.8674Z" fill="#012FB8"/>
<path d="M35.8674 75.0948C34.6113 74.8363 33.3869 74.2144 32.1943 73.2531C30.5327 71.9043 29.0221 69.9415 27.7102 67.4295C27.122 66.2987 26.5892 65.0952 26.1201 63.819C29.1653 63.1082 32.4567 62.6964 35.8595 62.6074V75.0948H35.8674Z" fill="#012FB8"/>
<path d="M38.651 75.0947V62.6074C42.0538 62.6964 45.3453 63.1082 48.3904 63.819C47.9213 65.0952 47.3885 66.2987 46.8003 67.4295C45.4885 69.9415 43.9858 71.9043 42.3162 73.2531C41.1316 74.2143 39.9071 74.8363 38.651 75.0947Z" fill="#012FB8"/>
<path d="M35.8674 59.78C32.1546 59.8689 28.5689 60.3293 25.2455 61.1289C24.1722 57.3892 23.5442 53.2052 23.4328 48.8354H35.8674L35.8674 59.78Z" fill="#012FB8"/>
<path d="M38.6504 48.8354H51.085C50.9737 53.2053 50.3535 57.3892 49.2723 61.1289C45.9489 60.3293 42.3553 59.8689 38.6504 59.78V48.8354Z" fill="#012FB8"/>
<path d="M38.6504 35.0618C42.3633 34.9729 45.9489 34.5125 49.2723 33.7129C50.3456 37.4527 50.9737 41.6367 51.085 46.0063H38.6504V35.0618Z" fill="#012FB8"/>
<path d="M43.3725 75.9918C45.5828 74.4168 47.5862 71.9694 49.2639 68.7547C49.9476 67.4462 50.5598 66.0407 51.0925 64.5464C53.2153 65.2007 55.187 66.0084 56.952 66.9534C57.3416 67.1635 57.7152 67.3734 58.073 67.5915C54.1772 71.7513 49.0889 74.7399 43.3725 75.9918Z" fill="#012FB8"/>
<path d="M49.2655 26.0887C47.5879 22.8659 45.5844 20.4266 43.3741 18.8516C49.0985 20.1116 54.1868 23.0921 58.0825 27.2437C57.7247 27.4618 57.3511 27.6799 56.9615 27.8818C55.1885 28.8349 53.2248 29.6427 51.102 30.2888C50.5614 28.8026 49.9492 27.3972 49.2655 26.0887Z" fill="#012FB8"/>
<path d="M14.5941 65.434C11.0323 60.8139 8.81416 55.0791 8.51999 48.8354H20.6524C20.7637 53.4476 21.4158 57.8819 22.5605 61.8639C20.2867 62.5666 18.1719 63.4309 16.2638 64.4568C15.6833 64.7716 15.1268 65.0947 14.5941 65.434Z" fill="#012FB8"/>
<path d="M38.6512 19.749C39.9074 20.0075 41.1318 20.6294 42.3243 21.5906C43.9859 22.9395 45.4965 24.9023 46.8083 27.4143C47.3967 28.5451 47.9294 29.7486 48.3984 31.0248C45.3534 31.7355 42.0619 32.1475 38.6591 32.2363V19.749H38.6512Z" fill="#012FB8"/>
<path d="M10.1793 37.5012C11.7775 39.4559 12.9223 40.7563 13.0813 40.9421L13.0972 40.9664C14.0353 42.0486 15.697 42.0486 16.6351 40.9664L16.651 40.9421C16.8896 40.6675 19.3542 37.8567 22.2402 34.125C21.2942 37.8001 20.7455 41.8305 20.6422 46.0065H8.50967C8.66081 43.034 9.23332 40.1746 10.1793 37.5012Z" fill="#012FB8"/>
<path d="M59.9258 29.4067C63.4876 34.0269 65.7058 39.7537 66 46.0053H53.8676C53.7563 41.3933 53.1043 36.9589 51.9594 32.9768C54.2333 32.2741 56.3481 31.4099 58.2562 30.3841C58.8366 30.061 59.3931 29.7379 59.9258 29.4067Z" fill="#012FB8"/>
<path d="M16.4369 67.5997C16.7947 67.3817 17.1684 67.1636 17.558 66.9617C19.331 66.0086 21.2948 65.2009 23.4174 64.5547C23.9582 66.0408 24.5703 67.4463 25.2461 68.7629C26.9237 71.9857 28.9272 74.425 31.1375 76C25.429 74.74 20.3407 71.7514 16.4369 67.5997Z" fill="#012FB8"/>
<path d="M59.9258 65.4328C59.3931 65.1016 58.8366 64.7705 58.2562 64.4635C56.3481 63.4377 54.2333 62.5654 51.9594 61.8708C53.0964 57.8887 53.7563 53.4543 53.8676 48.8423H66C65.7058 55.0778 63.4876 60.8126 59.9258 65.4328Z" fill="#012FB8"/>
<path d="M32.1943 21.5906C33.3789 20.6294 34.6113 20.0075 35.8674 19.749V32.2363C32.4646 32.1475 29.1731 31.7355 26.1281 31.0248C26.5971 29.7486 27.1298 28.5451 27.7182 27.4143C29.0221 24.8942 30.5327 22.9395 32.1943 21.5906Z" fill="#012FB8"/>
<path d="M1.0689 9.29682C1.8242 7.48754 2.90547 5.85595 4.2809 4.4586C5.65633 3.06125 7.2543 1.96275 9.04316 1.19542C10.8877 0.403858 12.8514 0 14.8709 0C16.8903 0 18.8541 0.403858 20.6986 1.19542C22.4795 1.96275 24.0856 3.06125 25.4609 4.4586C26.8363 5.85595 27.9176 7.47946 28.6729 9.29682C30.0881 12.6892 30.0642 16.5501 28.8081 19.9506C28.6013 20.516 28.3628 21.0653 28.0845 21.5984C26.6454 24.3931 24.5227 27.5512 22.3919 30.4429C21.7957 31.2587 21.1914 32.0502 20.611 32.8014C18.8222 35.1195 17.1844 37.1065 16.1111 38.3666C15.4591 39.142 14.2824 39.142 13.6226 38.3666C12.9945 37.6235 12.1597 36.6218 11.2136 35.4506C8.18435 31.6867 3.99444 26.1538 1.64905 21.5983C-0.274731 17.8425 -0.576849 13.2546 1.0689 9.29682ZM14.8709 6.58289C10.212 6.58289 6.44343 10.4195 6.44343 15.1447C6.44343 15.2739 6.44343 15.4032 6.45146 15.5324C6.49916 16.647 6.76145 17.7052 7.19085 18.6744C7.99385 20.4837 9.40109 21.9537 11.1502 22.8342C12.2713 23.3996 13.5434 23.7146 14.879 23.7146C14.9585 23.7146 15.0299 23.7146 15.1095 23.7146C19.6571 23.5934 23.3065 19.8052 23.3065 15.1528C23.3065 14.9024 23.2985 14.652 23.2747 14.4097C22.893 10.0238 19.2755 6.58289 14.8709 6.58289Z" fill="#012FB8"/>
</g>
<defs>
<clipPath id="clip0_1_103">
<rect width="66" height="76" fill="white"/>
</clipPath>
</defs>
</svg>
