<svg width="67" height="78" viewBox="0 0 67 78" fill="none" xmlns="http://www.w3.org/2000/svg">
<g clip-path="url(#clip0_1_98)">
<path d="M61.4167 0H5.58333C2.5125 0 0 2.4544 0 5.45422V71.0667C0 74.0665 2.5125 78 5.58333 78H61.4167C64.4875 78 67 74.0665 67 71.0667V5.45422C67 2.4544 64.4875 0 61.4167 0ZM16.75 59.9964C15.209 59.9964 13.9583 58.7747 13.9583 57.2693C13.9583 55.764 15.209 54.5422 16.75 54.5422C18.291 54.5422 19.5417 55.764 19.5417 57.2693C19.5417 58.7747 18.291 59.9964 16.75 59.9964ZM16.75 49.088C15.209 49.088 13.9583 47.8663 13.9583 46.3609C13.9583 44.8555 15.209 43.6338 16.75 43.6338C18.291 43.6338 19.5417 44.8555 19.5417 46.3609C19.5417 47.8663 18.291 49.088 16.75 49.088ZM16.75 38.1796C15.209 38.1796 13.9583 36.9578 13.9583 35.4524C13.9583 33.9471 15.209 32.7253 16.75 32.7253C18.291 32.7253 19.5417 33.9471 19.5417 35.4524C19.5417 36.9578 18.291 38.1796 16.75 38.1796ZM16.75 27.2711C15.209 27.2711 13.9583 26.0494 13.9583 24.544C13.9583 23.0386 15.209 21.8169 16.75 21.8169C18.291 21.8169 19.5417 23.0386 19.5417 24.544C19.5417 26.0494 18.291 27.2711 16.75 27.2711ZM50.25 59.9964H27.9167C26.3757 59.9964 25.125 58.7747 25.125 57.2693C25.125 55.764 26.3757 54.5422 27.9167 54.5422H50.25C51.791 54.5422 53.0417 55.764 53.0417 57.2693C53.0417 58.7747 51.791 59.9964 50.25 59.9964ZM50.25 49.088H27.9167C26.3757 49.088 25.125 47.8663 25.125 46.3609C25.125 44.8555 26.3757 43.6338 27.9167 43.6338H50.25C51.791 43.6338 53.0417 44.8555 53.0417 46.3609C53.0417 47.8663 51.791 49.088 50.25 49.088ZM50.25 38.1796H27.9167C26.3757 38.1796 25.125 36.9578 25.125 35.4524C25.125 33.9471 26.3757 32.7253 27.9167 32.7253H50.25C51.791 32.7253 53.0417 33.9471 53.0417 35.4524C53.0417 36.9578 51.791 38.1796 50.25 38.1796ZM50.25 27.2711H27.9167C26.3757 27.2711 25.125 26.0494 25.125 24.544C25.125 23.0386 26.3757 21.8169 27.9167 21.8169H50.25C51.791 21.8169 53.0417 23.0386 53.0417 24.544C53.0417 26.0494 51.791 27.2711 50.25 27.2711Z" fill="#012FB8"/>
</g>
<defs>
<clipPath id="clip0_1_98">
<rect width="67" height="78" fill="white"/>
</clipPath>
</defs>
</svg>
