<svg width="72" height="72" viewBox="0 0 72 72" fill="none" xmlns="http://www.w3.org/2000/svg">
<path d="M71.8082 47.0447C69.8807 54.6772 66.5763 61.7245 60.0518 64.1247C43.041 70.3794 24.7015 58.3469 11.8632 65.8201L0 54.0307C6.35905 51.3568 14.4648 41.0617 23.8806 39.8586C28.7734 39.2325 34.9393 41.9881 41.062 42.5549C46.4481 43.0533 55.5607 40.2109 56.4372 46.1511C57.1913 51.2905 48.0663 51.0137 41.9672 51.5417C46.7399 52.4905 51.8875 56.9242 55.8166 55.8426C60.8841 54.4546 63.5134 47.0172 67.0407 44.8601C71.0345 42.415 72.5788 43.9848 71.8082 47.0447ZM44.9716 32.7235V40.7676C45.2973 40.7461 45.624 40.7236 45.9518 40.7093C47.2012 40.6256 48.4948 40.5418 49.735 40.5418C49.997 40.5418 50.3391 40.5459 50.7285 40.5602C50.9186 39.9495 51.0481 39.303 51.0481 38.587C51.0481 36.721 50.3535 35.3064 48.9777 34.3351C48.1835 33.7703 46.8467 33.229 44.9716 32.7235ZM37.3487 22.9094C37.3487 24.3832 37.8409 25.5434 38.8314 26.3727C39.825 27.2102 41.1607 27.7934 42.8344 28.1172V17.6076C40.8565 17.6842 39.4458 18.2745 38.6095 19.397C37.7638 20.5153 37.3487 21.6868 37.3487 22.9094ZM49.6219 52.704C51.8341 53.7427 53.9229 54.5353 55.345 54.1431C57.74 53.4884 59.648 50.8768 61.4944 48.3469C62.975 46.3257 64.3683 44.4178 66.1139 43.3516C66.4838 43.1228 66.8424 42.9267 67.1969 42.7551C68.809 39.4051 69.7399 35.6639 69.7399 31.7021C69.7399 17.5095 58.1613 6 43.8866 6C29.6036 6 18.0312 17.5095 18.0312 31.7021C18.0312 34.3402 18.4339 36.8885 19.1789 39.2825C20.6286 38.7187 22.1174 38.302 23.6587 38.1039C26.4688 37.7495 29.5512 38.3654 32.7939 39.1293C32.721 38.4818 32.6768 37.7944 32.6768 37.056H36.6552C36.7271 38.2908 36.8864 39.2948 37.1052 40.1272C38.4892 40.4203 39.8671 40.6746 41.2305 40.7982C41.7319 40.8472 42.2827 40.8513 42.8437 40.8493V32.1862C39.5897 31.5714 37.1854 30.55 35.6329 29.1242C34.0824 27.6903 33.3066 25.7099 33.3066 23.1759C33.3066 20.9096 34.1399 18.8648 35.8116 17.054C37.4874 15.236 39.8291 14.3086 42.8437 14.277V11.3038H44.9829V14.2361C47.9615 14.4455 50.2538 15.3198 51.8526 16.8559C53.4513 18.3971 54.2877 20.4306 54.3607 22.9615H50.4234C50.3196 21.8278 50.0155 20.8493 49.5038 20.0292C48.5523 18.5227 47.0522 17.7332 44.9829 17.6576V28.5482C48.4588 29.5144 50.822 30.4254 52.0642 31.2772C54.0935 32.6806 55.1035 34.7488 55.1035 37.4921C55.1035 38.9159 54.933 40.1782 54.598 41.3099C56.2913 42.0054 57.8161 43.3321 58.1952 45.8998C58.4089 47.344 58.0637 48.6676 57.2109 49.7207C55.6912 51.5611 52.8472 52.3149 49.6219 52.704Z" fill="#012FB8"/>
</svg>
