<svg width="77" height="72" viewBox="0 0 77 72" fill="none" xmlns="http://www.w3.org/2000/svg">
<g clip-path="url(#clip0_1_213)">
<path d="M8.48961 13.9236L10.5157 21.6147C10.5717 21.8426 10.7699 22 11.0008 22C11.2332 22 11.4302 21.8428 11.4846 21.6147L13.5121 13.9236C13.5547 13.7208 13.721 13.5577 13.9224 13.5149L21.6147 11.4772C21.8396 11.4302 22 11.2273 22 10.9978C22 10.7684 21.8396 10.5715 21.6147 10.5244L13.9224 8.48372C13.7208 8.43956 13.5547 8.28076 13.5121 8.0778L11.4846 0.382365C11.4302 0.158972 11.2332 0 11.0008 0C10.7699 0 10.5717 0.158799 10.5157 0.382365L8.48961 8.0778C8.44094 8.28076 8.28076 8.43956 8.0778 8.48372L0.386694 10.5244C0.157414 10.5715 0 10.7684 0 10.9978C0 11.2271 0.157241 11.4301 0.386694 11.4772L8.0778 13.5149C8.28093 13.5577 8.44094 13.7208 8.48961 13.9236Z" fill="#012FB8"/>
<path d="M1 47V53.9806C1 55.1317 1.22815 56.2534 1.68291 57.3675C2.13749 58.4786 2.81885 59.5821 3.72665 60.6608C4.10977 61.1125 4.53956 61.5599 5 62V50.8281C4.69884 50.6001 4.40646 50.3704 4.12148 50.1378C2.9356 49.157 1.88747 48.1096 1 47Z" fill="#012FB8"/>
<path d="M9 63.264C10.0264 63.9531 11.1514 64.6134 12.3731 65.2318C12.8976 65.4995 13.4444 65.7525 14 66V54.4656C12.2045 53.7233 10.5312 52.8992 9 52V63.264Z" fill="#012FB8"/>
<path d="M16.2042 57V68.9037H16C18.4687 69.7288 21.1464 70.4357 24 71V58.9054C22.1502 58.5573 20.3578 58.1572 18.6414 57.7009C17.8118 57.4785 16.9976 57.2459 16.2042 57Z" fill="#012FB8"/>
<path d="M27 71.0562C30.4831 71.5929 34.1673 71.926 38 72V59.8892C34.1874 59.8184 30.5033 59.5162 27 59V71.0562Z" fill="#012FB8"/>
<path d="M40 72C43.8429 71.9266 47.5275 71.568 51 70.9964V59C47.5082 59.5466 43.819 59.8744 40 59.9477V72Z" fill="#012FB8"/>
<path d="M54 71C55.4 70.7224 56.7673 70.4195 58.0795 70.0798C59.4406 69.7284 60.7461 69.3443 62 68.9308V57C59.4925 57.7696 56.8161 58.4282 54 58.957V71Z" fill="#012FB8"/>
<path d="M65 54.5208V66C66.8672 65.1404 68.5433 64.1952 70 63.178V52C69.2379 52.4584 68.4393 52.9009 67.607 53.3233C66.7717 53.7431 65.8999 54.1412 65 54.5208Z" fill="#012FB8"/>
<path d="M73 50.5035H73.2005V61C74.6266 59.684 75.6604 58.3113 76.2778 56.9315C76.7593 55.8639 77 54.7894 77 53.6862V47C76.8982 47.1164 76.7962 47.2329 76.6881 47.3478C75.6451 48.4707 74.4011 49.5197 73 50.5035Z" fill="#012FB8"/>
<path d="M76.3158 40.3386C76.772 39.239 77 38.1337 77 36.999C77 35.8644 76.772 34.759 76.3158 33.6595C75.8624 32.5615 75.1812 31.4721 74.2716 30.4091C72.4585 28.2818 69.733 26.2727 66.2911 24.5736C59.4129 21.1639 49.7196 18.9942 39.0004 19C31.966 19 25.3729 19.9269 19.7275 21.5338C14.0807 23.1378 9.38417 25.4321 6.1441 28.0772C3.97865 29.8362 2.47555 31.7397 1.68301 33.6597C1.22836 34.7591 1 35.8646 1 36.9991C1 38.1339 1.22819 39.2392 1.68301 40.3387C2.13766 41.4354 2.81912 42.5247 3.72704 43.5876C5.54306 45.7181 8.26855 47.724 11.7075 49.4247C18.5855 52.8359 28.2811 55.0043 39.0004 55C46.0362 55 52.6285 54.0716 58.2724 52.4633C63.9193 50.8592 68.6186 48.5665 71.8561 45.9228C74.0201 44.1606 75.5262 42.2571 76.3158 40.3386ZM51.8361 40.9279C51.3376 41.8284 50.5435 42.5962 49.463 43.2321C48.3591 43.8814 46.9772 44.3698 45.3191 44.6944C44.5888 44.8377 43.8183 44.9342 43.0352 45.0132L43.354 48.8924H37.1575L37.1149 45.0893C35.4313 44.9855 33.828 44.7881 32.3308 44.4811C30.0666 44.0161 27.2798 42.1971 27.2798 42.1971C27.0408 42.0904 26.896 41.9047 26.8865 41.7001C26.8763 41.4955 26.9946 41.2908 27.217 41.1473L30.1903 39.1851C30.5011 38.9805 30.961 38.9438 31.3059 39.0929C31.3059 39.0929 33.3215 40.3518 34.903 40.6589C36.4967 40.963 38.0897 41.118 39.6725 41.118C41.673 41.1153 43.3083 40.8637 44.5621 40.3665C45.8048 39.8693 46.3479 39.1177 46.215 38.1118C46.1222 37.4056 45.7471 36.8603 45.0854 36.4639C44.4355 36.0706 43.3857 35.8295 41.9402 35.7241L37.2196 35.4638C34.4414 35.2854 32.3315 34.781 30.9015 33.9694C29.4971 33.1696 28.8933 31.994 29.0526 30.4763C29.1374 29.6633 29.4759 28.9556 30.0608 28.3446C30.6332 27.7467 31.3796 27.2479 32.2927 26.8474C33.2001 26.4526 34.2337 26.1544 35.4029 25.9584C35.8853 25.8764 36.3928 25.8239 36.9088 25.7727L36.8891 23.9479L41.3034 23.9362L41.451 25.7273C42.5177 25.7829 43.5382 25.8795 44.4989 26.0287C46.143 26.2756 47.9723 27.0463 47.9723 27.0463C48.1989 27.1134 48.3684 27.2319 48.4312 27.3725C48.4941 27.5171 48.443 27.6575 48.2902 27.7598L46.2863 29.1167C46.0684 29.2629 45.703 29.3039 45.3842 29.2088C45.3842 29.2088 43.9827 28.64 42.8203 28.4645C41.6659 28.2892 40.4668 28.2043 39.2117 28.2072C37.5761 28.2101 36.3634 28.3987 35.576 28.7774C34.7762 29.1633 34.3653 29.6664 34.3486 30.2994C34.3317 30.88 34.6073 31.3303 35.1908 31.6491C35.7756 31.9708 36.7676 32.1814 38.178 32.2661L42.1354 32.4766C45.0853 32.6376 47.3888 33.1346 49.0609 33.9828C50.7775 34.8499 51.8274 36.1541 52.2047 37.9422C52.4415 39.0563 52.3185 40.0534 51.8361 40.9279ZM71.0723 38.3385L66.4402 39.5667C66.3173 39.5901 66.2179 39.691 66.1917 39.8152L64.9692 44.4459C64.9371 44.5818 64.82 44.6782 64.6798 44.6782C64.5393 44.6782 64.4196 44.5818 64.3874 44.4459L63.165 39.8152C63.1357 39.6909 63.0393 39.59 62.9165 39.5667L58.2842 38.3385C58.1468 38.3106 58.0504 38.1893 58.0504 38.0519C58.0504 37.9114 58.1468 37.7915 58.2842 37.7638L62.9165 36.5369C63.0393 36.5063 63.1357 36.4141 63.165 36.2913L64.3874 31.6563C64.4196 31.5189 64.5393 31.4238 64.6798 31.4238C64.82 31.4238 64.9371 31.5189 64.9692 31.6563L66.1917 36.2913C66.2179 36.4141 66.3174 36.5063 66.4402 36.5369L71.0723 37.7638C71.207 37.7915 71.3064 37.9114 71.3064 38.0519C71.3064 38.1893 71.207 38.3106 71.0723 38.3385Z" fill="#012FB8"/>
</g>
<defs>
<clipPath id="clip0_1_213">
<rect width="77" height="72" fill="white"/>
</clipPath>
</defs>
</svg>
