<svg width="63" height="67" viewBox="0 0 63 67" fill="none" xmlns="http://www.w3.org/2000/svg">
<path d="M0 0H63V67H0V0Z" fill="#012FB8"/>
<path d="M20 16H52V19.8889H20V16ZM20 23.7778H52V27.6667H20V23.7778ZM20 31.5556H52V35.4444H20V31.5556ZM20 39.3333H52V43.2222H20V39.3333ZM20 47.1111H52V51H20V47.1111Z" fill="white"/>
<path d="M12 16H16V19.8889H12V16ZM12 23.7778H16V27.6667H12V23.7778ZM12 31.5556H16V35.4444H12V31.5556ZM12 39.3333H16V43.2222H12V39.3333ZM12 47.1111H16V51H12V47.1111Z" fill="white"/>
</svg>
