<svg width="78" height="73" viewBox="0 0 78 73" fill="none" xmlns="http://www.w3.org/2000/svg">
<g clip-path="url(#clip0_1_248)">
<path d="M25.5775 5.64714C31.2674 5.64714 35.8803 10.257 35.8803 15.9433C35.8803 21.6296 31.2674 26.2395 25.5775 26.2395C19.8875 26.2395 15.2747 21.6296 15.2747 15.9433C15.2747 10.257 19.8872 5.64714 25.5775 5.64714ZM8.9768 44.2369C8.9768 43.4639 9.47389 42.9396 10.2749 42.9396C11.076 42.9396 11.5731 43.4363 11.5731 44.2369V72.9997H39.8849V44.2369C39.8849 43.4639 40.382 42.9396 41.183 42.9396C41.9565 42.9396 42.4812 43.4363 42.4812 44.2369V72.9997H51.4858V41.6423C51.4858 34.5482 45.6853 28.779 38.6143 28.779H36.018L28.4498 40.538L27.5383 31.7324L28.7813 28.7512H23.2019L24.4449 31.7324L23.4783 40.593L15.9098 28.779H12.8715C5.77292 28.779 0 34.5758 0 41.6423V73H9.00465V44.2372L8.9768 44.2369ZM77.786 6.47489L70.7942 0.15725C70.5537 -0.0660816 70.1758 -0.0487594 69.9523 0.191585L67.8735 2.49203C67.8735 2.49203 61.4314 1.03264 59.4044 0.603605C57.7896 0.277268 56.9306 1.20462 56.7415 2.01134C56.4667 3.28173 55.6591 6.74957 55.1611 8.92999C54.955 9.87436 55.4703 10.8528 56.3979 11.1274C57.4116 11.4364 58.4424 10.8184 58.6829 9.80538L59.3356 7.02425C59.3356 7.02425 60.813 5.83954 63.0118 7.95129L71.9277 16.8614C72.3229 17.2734 72.3229 17.9258 71.9277 18.3208C71.5154 18.7328 70.8626 18.7328 70.4673 18.3208L67.1347 14.9386C66.8769 14.6639 66.4132 14.6983 66.1897 15.0246C66.0179 15.265 66.0696 15.6083 66.2758 15.8143L69.6601 19.2478C70.0724 19.6598 70.0724 20.3639 69.6774 20.7586C69.2822 21.1536 68.6467 21.1536 68.2344 20.7412L64.8331 17.3247C64.6269 17.1014 64.2834 17.0501 64.0429 17.2217C63.6993 17.4451 63.6649 17.8914 63.9398 18.1661C63.9398 18.1661 66.2934 20.5182 67.2898 21.5309C67.685 21.943 67.6677 22.5953 67.2554 22.973C66.8431 23.3337 66.2247 23.3337 65.8294 22.9387L62.4968 19.6082C62.2219 19.3335 61.7753 19.3678 61.5518 19.6942C61.38 19.9345 61.4314 20.2779 61.6376 20.4839L64.9015 23.7287C65.3138 24.1407 65.2967 24.8104 64.8845 25.2051C64.4892 25.5828 63.8364 25.5828 63.4415 25.1878L60.8817 22.647C60.9161 22.4923 60.9504 22.3206 60.9504 22.1663C60.9504 21.1189 60.1085 20.2605 59.0434 20.2605C58.8887 20.2605 58.7342 20.2949 58.5795 20.3122C58.6138 20.1578 58.6312 20.0202 58.6312 19.8485C58.6312 18.8011 57.7893 17.9428 56.7242 17.9428C56.5694 17.9428 56.415 17.9771 56.2602 17.9944C56.2946 17.8571 56.3119 17.7197 56.3119 17.5651C56.3119 16.5177 55.47 15.6593 54.4049 15.6593C54.2675 15.6593 54.1301 15.6764 54.0097 15.6937C54.044 15.539 54.0614 15.4017 54.0614 15.23C54.0614 14.1826 53.2195 13.3243 52.1544 13.3243C51.9653 13.3243 51.7765 13.3586 51.6047 13.4102L47.5162 9.3414C47.2583 9.08373 46.8634 9.10105 46.6229 9.35872C46.3997 9.61638 46.4338 9.99407 46.6746 10.2344L50.6086 14.1143C50.0072 14.7153 48.1693 16.5864 48.1349 16.6207C47.843 16.9471 47.7056 17.3934 47.7056 17.8054C47.7056 18.8698 48.5989 19.7112 49.664 19.7112C49.8014 19.7112 49.9388 19.6942 50.0592 19.6768C50.0249 19.8312 50.0078 19.9688 50.0078 20.1405C50.0078 21.1879 50.8497 22.0463 51.9148 22.0463C52.0696 22.0463 52.224 22.0119 52.3788 21.9946C52.3444 22.132 52.3271 22.2693 52.3271 22.424C52.3271 23.4713 53.169 24.3297 54.2341 24.3297C54.3885 24.3297 54.5433 24.2954 54.698 24.278C54.6637 24.4327 54.6464 24.57 54.6464 24.7417C54.6464 25.7891 55.4883 26.6475 56.5533 26.6475C57.1891 26.6475 57.7388 26.3384 58.0824 25.8748L60.2469 23.6943C60.2469 23.6943 61.9991 25.4628 62.6005 26.0464C63.8373 27.2312 65.332 26.5615 65.7957 26.0464C66.191 25.6171 66.4315 25.1021 66.4485 24.5527C66.5172 24.57 66.5859 24.57 66.6546 24.57C67.2387 24.57 67.8057 24.364 68.2524 23.9177C68.699 23.454 68.9225 22.8533 68.9052 22.2523C68.9222 22.2696 69.8158 22.3553 70.5543 21.6169C71.0183 21.1532 71.2415 20.5182 71.2071 19.9002C71.2415 19.9002 72.1347 19.9688 72.8736 19.2478C73.7669 18.3894 73.7155 16.8957 72.8392 16.0203L71.1557 14.3379C71.8429 14.0976 73.0627 13.5652 73.8012 12.4838C74.0417 12.1231 75.416 10.0117 75.416 10.0117L77.8383 7.35058C78.0779 7.0759 78.0435 6.69822 77.786 6.47489Z" fill="#012FB8"/>
</g>
<defs>
<clipPath id="clip0_1_248">
<rect width="78" height="73" fill="white"/>
</clipPath>
</defs>
</svg>
