<svg width="75" height="67" viewBox="0 0 75 67" fill="none" xmlns="http://www.w3.org/2000/svg">
<g clip-path="url(#clip0_1_263)">
<path d="M20.1393 15H0.860672C0.385479 15 0 15.3906 0 15.8725V64.3825C0 65.828 1.15598 67 2.58202 67H20.1393C20.6145 67 21 66.6094 21 66.1275V15.8725C21 15.3906 20.6145 15 20.1393 15ZM13.599 56.3556H7.40232C5.97644 56.3556 4.82031 55.1838 4.82031 53.7381C4.82031 52.2925 5.97629 51.1206 7.40232 51.1206H13.599C15.0249 51.1206 16.1811 52.2925 16.1811 53.7381C16.1811 55.1838 15.0251 56.3556 13.599 56.3556ZM13.599 43.6174H7.40232C5.97644 43.6174 4.82031 42.4455 4.82031 40.9998C4.82031 39.5544 5.97629 38.3824 7.40232 38.3824H13.599C15.0249 38.3824 16.1811 39.5542 16.1811 40.9998C16.1811 42.4455 15.0251 43.6174 13.599 43.6174ZM13.599 30.8792H7.40232C5.97644 30.8792 4.82031 29.7074 4.82031 28.2617C4.82031 26.8161 5.97629 25.6442 7.40232 25.6442H13.599C15.0249 25.6442 16.1811 26.8161 16.1811 28.2617C16.1811 29.7074 15.0251 30.8792 13.599 30.8792Z" fill="#012FB8"/>
<path d="M72.5 0H2.50005C1.11929 0 0 1.1754 0 2.62503V13.125C0 13.6081 0.373096 14 0.83335 14H74.1666C74.6268 14 75 13.6083 75 13.125V2.62503C75 1.1754 73.8807 0 72.5 0ZM9.49995 8.74994C8.57944 8.74994 7.83325 7.96645 7.83325 6.99992C7.83325 6.0334 8.57944 5.2499 9.49995 5.2499C10.4205 5.2499 11.1667 6.0334 11.1667 6.99992C11.1667 7.96645 10.4205 8.74994 9.49995 8.74994ZM16.1666 8.74994C15.2461 8.74994 14.4999 7.96645 14.4999 6.99992C14.4999 6.0334 15.2461 5.2499 16.1666 5.2499C17.0871 5.2499 17.8333 6.0334 17.8333 6.99992C17.8333 7.96645 17.0871 8.74994 16.1666 8.74994ZM22.8334 8.74994C21.9129 8.74994 21.1667 7.96645 21.1667 6.99992C21.1667 6.0334 21.9129 5.2499 22.8334 5.2499C23.7539 5.2499 24.5001 6.0334 24.5001 6.99992C24.5 7.96645 23.7538 8.74994 22.8334 8.74994Z" fill="#012FB8"/>
<path d="M74.1275 15H23.8725C23.3908 15 23 15.3906 23 15.8725V66.1275C23 66.6092 23.3906 67 23.8725 67H72.3825C73.828 67 75 65.8281 75 64.3825V15.8725C75 15.3906 74.6094 15 74.1275 15ZM58.5973 47.9798V54.9597C58.5973 56.4052 57.4255 57.5772 55.9798 57.5772H42.0202C40.5747 57.5772 39.4027 56.4053 39.4027 54.9597V47.9798C39.4027 45.2315 40.5656 42.7513 42.4232 41C36.1067 35.0446 40.3584 24.4228 49 24.4228C57.6491 24.4228 61.8863 35.0515 55.5768 41C57.4344 42.7511 58.5973 45.2315 58.5973 47.9798Z" fill="#012FB8"/>
</g>
<defs>
<clipPath id="clip0_1_263">
<rect width="75" height="67" fill="white"/>
</clipPath>
</defs>
</svg>
