<svg width="73" height="73" viewBox="0 0 73 73" fill="none" xmlns="http://www.w3.org/2000/svg">
<path d="M34.0666 33.459C38.1001 33.459 41.9684 35.0613 44.8205 37.9134C47.6726 40.7655 49.2749 44.6338 49.2749 48.6673V66.9173H18.8582V48.6673C18.8582 44.6338 20.4605 40.7655 23.3126 37.9134C26.1648 35.0613 30.0331 33.459 34.0666 33.459ZM13.6509 42.6022C13.1668 44.2349 12.8809 45.92 12.7992 47.621L12.7749 48.6673V66.9173H3.6499V53.2298C3.6493 50.6066 4.61724 48.0755 6.36804 46.1221C8.11884 44.1686 10.5292 42.9304 13.1369 42.6448L13.6509 42.6022ZM54.4822 42.6022C57.189 42.7672 59.7309 43.9587 61.5894 45.9336C63.4478 47.9085 64.4828 50.518 64.4832 53.2298V66.9173H55.3582V48.6673C55.3582 46.5594 55.0541 44.5246 54.4822 42.6022ZM14.2957 24.334C16.3125 24.334 18.2466 25.1351 19.6727 26.5612C21.0987 27.9872 21.8999 29.9214 21.8999 31.9381C21.8999 33.9549 21.0987 35.889 19.6727 37.3151C18.2466 38.7412 16.3125 39.5423 14.2957 39.5423C12.279 39.5423 10.3448 38.7412 8.91878 37.3151C7.49272 35.889 6.69157 33.9549 6.69157 31.9381C6.69157 29.9214 7.49272 27.9872 8.91878 26.5612C10.3448 25.1351 12.279 24.334 14.2957 24.334ZM53.8374 24.334C55.8541 24.334 57.7883 25.1351 59.2143 26.5612C60.6404 27.9872 61.4416 29.9214 61.4416 31.9381C61.4416 33.9549 60.6404 35.889 59.2143 37.3151C57.7883 38.7412 55.8541 39.5423 53.8374 39.5423C51.8206 39.5423 49.8865 38.7412 48.4604 37.3151C47.0344 35.889 46.2332 33.9549 46.2332 31.9381C46.2332 29.9214 47.0344 27.9872 48.4604 26.5612C49.8865 25.1351 51.8206 24.334 53.8374 24.334ZM34.0666 6.08398C37.2934 6.08398 40.388 7.36583 42.6697 9.64752C44.9514 11.9292 46.2332 15.0238 46.2332 18.2506C46.2332 21.4774 44.9514 24.5721 42.6697 26.8538C40.388 29.1355 37.2934 30.4173 34.0666 30.4173C30.8398 30.4173 27.7451 29.1355 25.4634 26.8538C23.1817 24.5721 21.8999 21.4774 21.8999 18.2506C21.8999 15.0238 23.1817 11.9292 25.4634 9.64752C27.7451 7.36583 30.8398 6.08398 34.0666 6.08398Z" fill="#012FB8"/>
</svg>
