<svg width="70" height="65" viewBox="0 0 70 65" fill="none" xmlns="http://www.w3.org/2000/svg">
<path d="M58.3425 42C52.747 42 47.9674 45.91 46.9182 51.2H31.5304C30.8309 51.2 30.3647 51.775 30.3647 52.465C30.3647 52.81 30.3647 53.155 30.3647 53.5C30.3647 54.65 30.2481 55.685 30.0149 56.72C29.8984 57.41 30.4812 58.1 31.1807 58.1H47.6177C49.3663 62.125 53.563 65 58.3425 65C64.7541 65 70 59.825 70 53.5C70 47.175 64.7541 42 58.3425 42Z" fill="#012FB8"/>
<path d="M27.3238 28.5598C25.9165 27.9814 24.6266 27.1716 23.4539 26.2462C22.8675 25.7834 22.0467 26.0148 21.6948 26.5932L13.3687 41.9791C12.8996 41.8634 12.3133 41.8634 11.7269 41.8634C5.27712 41.8634 0 47.0691 0 53.4317C0 59.7943 5.27712 65 11.7269 65C18.1768 65 23.4539 59.7943 23.4539 53.4317C23.4539 50.0769 22.0467 47.1848 19.8185 44.9868L27.9101 30.1794C28.1447 29.601 27.9101 28.9069 27.3238 28.5598Z" fill="#012FB8"/>
<path d="M35.5364 23.1418C36.69 23.1418 37.7283 23.0261 38.7666 22.679L46.7267 37.3741C47.0728 37.9526 47.765 38.184 48.3418 37.8369C49.6108 37.0269 50.8798 36.3327 52.2642 35.8698C52.9564 35.6384 53.1871 34.8285 52.841 34.2499L44.5348 18.7449C46.0345 16.7778 47.0728 14.2322 47.0728 11.5709C47.0728 5.20691 41.8814 0 35.5364 0C29.1914 0 24 5.20691 24 11.5709C24 17.9349 29.1914 23.1418 35.5364 23.1418Z" fill="#012FB8"/>
</svg>
