<svg width="67" height="63" viewBox="0 0 67 63" fill="none" xmlns="http://www.w3.org/2000/svg">
<g clip-path="url(#clip0_1_92)">
<path d="M41.1342 40.1911C41.1382 35.3401 45.0149 31.411 49.8014 31.4089H64.12V20.9738C64.12 16.6283 60.8159 13.0657 56.6121 12.7156V12.6824H10.2109C8.98413 12.6824 7.98635 11.6738 7.98635 10.431C7.98635 9.18413 8.98413 8.17746 10.2109 8.17746H56.608C56.5447 3.65167 52.9073 0 48.4254 0H13.098C6.06039 0 0.335387 5.62763 0.0307514 12.6824H0V13.2686V22.9208V49.7314C0 57.0595 5.8641 63 13.098 63H55.9353C60.456 62.9999 64.12 59.286 64.12 54.7066V48.9692H49.8014C45.0149 48.969 41.1382 45.0378 41.1342 40.1911Z" fill="#012FB8"/>
<path d="M65.7527 34.7568H49.8024C48.316 34.7568 46.9849 35.3617 46.0096 36.3476C45.0363 37.3356 44.4373 38.684 44.4373 40.1919C44.4373 41.6956 45.0363 43.046 46.0096 44.034C46.9849 45.022 48.316 45.6248 49.8024 45.6269H65.7527C66.4418 45.6269 66.9999 45.0594 66.9999 44.3613V36.0203C66.9999 35.3202 66.4417 34.7568 65.7527 34.7568ZM49.8944 42.0021C48.9068 42.0021 48.1074 41.1902 48.1074 40.1919C48.1074 39.1893 48.9068 38.3774 49.8944 38.3774C50.882 38.3774 51.6835 39.1893 51.6835 40.1919C51.6835 41.1902 50.882 42.0021 49.8944 42.0021Z" fill="#012FB8"/>
</g>
<defs>
<clipPath id="clip0_1_92">
<rect width="67" height="63" fill="white"/>
</clipPath>
</defs>
</svg>
